<svg xmlns="http://www.w3.org/2000/svg" xmlns:xlink="http://www.w3.org/1999/xlink" viewBox="0 0 1011.09 1011.09">
  <defs>
    <style>
      .cls-1 {
        fill: #f3bb4e;
      }

      .cls-2 {
        fill: #9e9e9e;
      }

      .cls-3 {
        opacity: 0.31;
        fill: url(#Dégradé_sans_nom_9);
      }

      .cls-4 {
        fill: #cacec0;
      }

      .cls-5 {
        fill: #eaf1dc;
      }

      .cls-6 {
        fill: #1f2e2d;
      }

      .cls-7 {
        fill: #cca440;
      }

      .cls-8 {
        fill: #e7bf4d;
      }

      .cls-9 {
        fill: #777776;
      }

      .cls-10 {
        fill: none;
      }
    </style>
    <linearGradient id="Dégradé_sans_nom_9" data-name="Dégradé sans nom 9" x1="267.41" y1="262.03" x2="762.79" y2="664.12" gradientUnits="userSpaceOnUse">
      <stop offset="0"/>
      <stop offset="1" stop-opacity="0"/>
    </linearGradient>
  </defs>
  <g id="Calque_2" data-name="Calque 2">
    <g id="Calque_1-2" data-name="Calque 1">
      <g>
        <rect class="cls-1" width="1011.09" height="1011.09"/>
        <rect class="cls-2" x="505.55" y="198.83" width="14.86" height="106.69"/>
        <rect class="cls-2" x="557.4" y="139.89" width="14.86" height="179.88"/>
        <polyline class="cls-3" points="268.66 553.65 665.29 1011.09 1011.09 1011.09 1011.09 439.56 572.26 139.89 572.26 409.66"/>
        <path class="cls-4" d="M742.43,553.65C723.28,575.59,628.35,592.39,513,593.09V553.65Z"/>
        <path class="cls-4" d="M703.94,409.66H534.2A41.42,41.42,0,0,1,513,480.31v50.3H745.5A239,239,0,0,0,703.94,409.66ZM586.52,505.81a21.69,21.69,0,1,1,21.69-21.69A21.69,21.69,0,0,1,586.52,505.81Z"/>
        <circle class="cls-5" cx="586.52" cy="484.12" r="21.69"/>
        <path class="cls-4" d="M686,386.62H513V357.36H655.25A241,241,0,0,1,686,386.62Z"/>
        <path class="cls-4" d="M620.58,334.32H513V305.18c2.49.07,5,.18,7.43.34a239.55,239.55,0,0,1,37,5.15q7.51,1.65,14.86,3.77A239.31,239.31,0,0,1,620.58,334.32Z"/>
        <path class="cls-5" d="M534.2,409.66A41.42,41.42,0,0,1,513,480.31V593.09l-7.43,0c-118.71,0-217.32-17.05-236.88-39.46-2.32-2.65-3.53-5.38-3.53-8.17q0-7.49.46-14.87a240.29,240.29,0,0,1,240-225.55c2.49,0,5,0,7.43.12v29.14H620.58a239.85,239.85,0,0,1,34.67,23H513v41.45A41.17,41.17,0,0,1,534.2,409.66Z"/>
        <circle class="cls-6" cx="586.52" cy="484.12" r="21.69"/>
        <path class="cls-7" d="M703.94,409.66H534.2A41.17,41.17,0,0,0,513,398.81V386.62H686A238.26,238.26,0,0,1,703.94,409.66Z"/>
        <path class="cls-8" d="M534.2,409.66H307.15a238.26,238.26,0,0,1,18-23H513v12.19A41.17,41.17,0,0,1,534.2,409.66Z"/>
        <rect class="cls-8" x="319.05" y="494.25" width="145.07" height="36.35"/>
        <path class="cls-9" d="M746,545.48c0,2.79-1.21,5.52-3.53,8.17H513v-23H745.5Q746,538,746,545.48Z"/>
        <path class="cls-2" d="M513,530.61v23H268.66c-2.32-2.65-3.53-5.38-3.53-8.17q0-7.49.46-14.87Z"/>
        <path class="cls-9" d="M655.25,357.36H513v-23H620.58A239.85,239.85,0,0,1,655.25,357.36Z"/>
        <path class="cls-2" d="M513,334.32v23H355.84a239.85,239.85,0,0,1,34.67-23Z"/>
        <path class="cls-6" d="M547,439.56a41.43,41.43,0,1,1-12.76-29.9A41.43,41.43,0,0,1,547,439.56Z"/>
        <polyline class="cls-10" points="512.97 480.31 512.97 409.66 512.97 398.81"/>
        <line class="cls-10" x1="512.97" y1="357.36" x2="512.97" y2="334.32"/>
        <line class="cls-10" x1="512.97" y1="371.99" x2="512.97" y2="357.36"/>
        <line class="cls-10" x1="512.97" y1="334.32" x2="512.97" y2="326.59"/>
      </g>
    </g>
  </g>
</svg>
