<svg xmlns="http://www.w3.org/2000/svg" viewBox="0 0 2591.57 2591.57">
  <defs>
    <style>
      .cls-1 {
        fill: #d3cfc7;
      }

      .cls-2, .cls-4 {
        fill: #9e9d9d;
      }

      .cls-3 {
        fill: #353535;
      }

      .cls-4, .cls-8 {
        stroke: #515151;
        stroke-width: 3px;
      }

      .cls-12, .cls-4, .cls-8 {
        stroke-miterlimit: 10;
      }

      .cls-5 {
        fill: #727272;
      }

      .cls-6 {
        fill: #0bf8f9;
      }

      .cls-7 {
        fill: #e25346;
      }

      .cls-12, .cls-8 {
        fill: none;
      }

      .cls-9 {
        fill: #bcbcbc;
      }

      .cls-10 {
        fill: #febf5d;
      }

      .cls-11 {
        fill: #938a8a;
      }

      .cls-12 {
        stroke: #262324;
      }
    </style>
  </defs>
  <g id="Calque_2" data-name="Calque 2">
    <g id="Calque_1-2" data-name="Calque 1">
      <g>
        <polygon class="cls-1" points="1368.05 471.75 1370.01 471.73 1374.26 471.65 1376.56 471.73 1379.29 472 1382.09 472.47 1384.49 473.05 1386.44 473.63 1387.97 474.15 1391.12 475.47 1391.19 482.59 1389.83 483.25 1387.67 484.13 1384.62 485.15 1382.02 485.83 1378.99 486.39 1376.96 486.63 1375.21 486.73 1368.27 486.82 1366.34 486.99 1366.17 471.62 1368.05 471.75"/>
        <polygon class="cls-2" points="1291.73 491.29 1291.49 468.94 1366.17 471.62 1366.34 486.99 1291.73 491.29"/>
        <polygon class="cls-2" points="1269.99 550.69 1255.56 495.94 1255.23 466.04 1267.01 410.2 1291.04 409.94 1292.57 550.45 1269.99 550.69"/>
        <rect class="cls-2" x="1301.39" y="373.39" width="3.69" height="73.39" transform="translate(1699.1 -897.54) rotate(89.38)"/>
        <rect class="cls-2" x="1301.53" y="386.35" width="3.69" height="73.39" transform="translate(1712.2 -884.86) rotate(89.38)"/>
        <rect class="cls-2" x="1302.75" y="498.81" width="3.69" height="73.39" transform="translate(1825.86 -774.84) rotate(89.38)"/>
        <rect class="cls-2" x="1302.9" y="511.78" width="3.69" height="73.39" transform="matrix(0.01, 1, -1, 0.01, 1838.97, -762.16)"/>
        <rect class="cls-2" x="1247.08" y="472.37" width="24.83" height="15.61" transform="translate(1725.92 -784.47) rotate(89.38)"/>
        <polygon class="cls-3" points="1299.08 485.83 1298.96 474.24 1316.79 475.21 1316.88 484.47 1299.08 485.83"/>
        <polyline class="cls-4" points="1255.25 467.45 1286.04 467.47 1291.49 468.94"/>
        <polyline class="cls-4" points="1255.53 493.57 1286.32 492.88 1291.73 491.29"/>
        <rect class="cls-3" x="1288.01" y="477.43" width="11.6" height="5.32" transform="translate(1759.78 -818.87) rotate(89.38)"/>
        <rect class="cls-3" x="1275.87" y="477.57" width="11.6" height="5.32" transform="translate(1747.91 -806.61) rotate(89.38)"/>
        <rect class="cls-5" x="1261.16" y="468.81" width="11.6" height="23.15" transform="translate(1733.52 -791.74) rotate(89.38)"/>
        <rect class="cls-5" x="1241.9" y="461.43" width="7.26" height="19.52" transform="translate(1703.12 -779.4) rotate(89.38)"/>
        <rect class="cls-5" x="1242.1" y="480.29" width="7.26" height="19.52" transform="translate(1722.19 -760.95) rotate(89.38)"/>
        <rect class="cls-6" x="1231.29" y="489.11" width="7.26" height="2.1" transform="translate(1711.61 -750.03) rotate(89.38)"/>
        <rect class="cls-6" x="1231.09" y="470.25" width="7.26" height="2.1" transform="translate(1692.55 -768.48) rotate(89.38)"/>
        <rect class="cls-7" x="1268.11" y="428.27" width="39.15" height="6.8" transform="translate(1705.31 -860.64) rotate(89.38)"/>
        <rect class="cls-7" x="1269.19" y="527.51" width="39.15" height="6.8" transform="translate(1805.61 -763.56) rotate(89.38)"/>
        <line class="cls-8" x1="1366.25" y1="479.3" x2="1320.7" y2="479.8"/>
        <rect class="cls-1" x="1261.57" y="428.6" width="39.15" height="6.28" transform="translate(1698.91 -854.03) rotate(89.38)"/>
        <rect class="cls-1" x="1262.65" y="527.84" width="39.15" height="6.28" transform="translate(1799.22 -756.95) rotate(89.38)"/>
        <polyline class="cls-8" points="1290.87 412.06 1272.86 412.26 1263.58 465.95"/>
        <polyline class="cls-8" points="1263.89 495.04 1277.2 546.93 1292.34 546.76"/>
      </g>
      <g>
        <polygon class="cls-1" points="1497.35 308.77 1499.32 308.75 1503.56 308.67 1505.86 308.76 1508.6 309.02 1511.4 309.5 1513.8 310.08 1515.75 310.65 1517.27 311.18 1520.42 312.5 1520.5 319.62 1519.14 320.27 1516.97 321.16 1513.93 322.18 1511.33 322.86 1508.3 323.42 1506.27 323.65 1504.52 323.76 1497.58 323.84 1495.64 324.01 1495.47 308.64 1497.35 308.77"/>
        <polygon class="cls-2" points="1421.04 328.32 1420.8 305.96 1495.47 308.64 1495.64 324.01 1421.04 328.32"/>
        <polygon class="cls-2" points="1399.3 387.72 1384.87 332.97 1384.54 303.07 1396.32 247.23 1420.35 246.97 1421.88 387.47 1399.3 387.72"/>
        <rect class="cls-2" x="1430.7" y="210.42" width="3.69" height="73.39" transform="translate(1664.03 -1188.04) rotate(89.38)"/>
        <rect class="cls-2" x="1430.84" y="223.38" width="3.69" height="73.39" transform="translate(1677.13 -1175.35) rotate(89.38)"/>
        <rect class="cls-2" x="1432.06" y="335.84" width="3.69" height="73.39" transform="matrix(0.01, 1, -1, 0.01, 1790.8, -1065.34)"/>
        <rect class="cls-2" x="1432.2" y="348.8" width="3.69" height="73.39" transform="translate(1803.9 -1052.66) rotate(89.38)"/>
        <rect class="cls-2" x="1376.39" y="309.39" width="24.83" height="15.61" transform="matrix(0.01, 1, -1, 0.01, 1690.86, -1074.97)"/>
        <polygon class="cls-3" points="1428.39 322.86 1428.26 311.26 1446.09 312.24 1446.19 321.5 1428.39 322.86"/>
        <polyline class="cls-4" points="1384.56 304.47 1415.35 304.5 1420.8 305.96"/>
        <polyline class="cls-4" points="1384.84 330.6 1415.62 329.9 1421.04 328.32"/>
        <rect class="cls-3" x="1417.31" y="314.46" width="11.6" height="5.32" transform="translate(1724.71 -1109.37) rotate(89.38)"/>
        <rect class="cls-3" x="1405.18" y="314.59" width="11.6" height="5.32" transform="translate(1712.85 -1097.1) rotate(89.38)"/>
        <rect class="cls-5" x="1390.47" y="305.84" width="11.6" height="23.15" transform="translate(1698.45 -1082.23) rotate(89.38)"/>
        <rect class="cls-5" x="1371.2" y="298.45" width="7.26" height="19.52" transform="translate(1668.06 -1069.9) rotate(89.38)"/>
        <rect class="cls-5" x="1371.41" y="317.32" width="7.26" height="19.52" transform="translate(1687.12 -1051.45) rotate(89.38)"/>
        <rect class="cls-6" x="1360.6" y="326.14" width="7.26" height="2.1" transform="translate(1676.55 -1040.52) rotate(89.38)"/>
        <rect class="cls-6" x="1360.4" y="307.28" width="7.26" height="2.1" transform="translate(1657.48 -1058.98) rotate(89.38)"/>
        <rect class="cls-7" x="1397.42" y="265.3" width="39.15" height="6.8" transform="translate(1670.24 -1151.14) rotate(89.38)"/>
        <rect class="cls-7" x="1398.5" y="364.54" width="39.15" height="6.8" transform="translate(1770.55 -1054.06) rotate(89.38)"/>
        <line class="cls-8" x1="1495.56" y1="316.33" x2="1450" y2="316.82"/>
        <rect class="cls-1" x="1390.88" y="265.63" width="39.15" height="6.28" transform="translate(1663.84 -1144.53) rotate(89.38)"/>
        <rect class="cls-1" x="1391.96" y="364.87" width="39.15" height="6.28" transform="translate(1764.15 -1047.45) rotate(89.38)"/>
        <polyline class="cls-8" points="1420.18 249.09 1402.16 249.28 1392.88 302.98"/>
        <polyline class="cls-8" points="1393.2 332.07 1406.51 383.95 1421.65 383.79"/>
      </g>
      <g>
        <rect class="cls-6" x="1085.53" y="338.17" width="20.95" height="4.76" transform="translate(1441.76 -753.82) rotate(90.27)"/>
        <rect class="cls-6" x="1085.82" y="275.79" width="20.95" height="4.76" transform="translate(1379.68 -816.79) rotate(90.27)"/>
        <polygon class="cls-9" points="1228.85 329.22 1229.04 289.74 1275.63 298.29 1275.52 321.11 1228.85 329.22"/>
        <polygon class="cls-9" points="1210.69 321.74 1210.81 297.04 1229.04 289.74 1228.85 329.22 1210.69 321.74"/>
        <polygon class="cls-3" points="1225.22 317.34 1225.29 301.58 1252.29 303.3 1252.23 315.87 1225.22 317.34"/>
        <rect class="cls-9" x="1156.52" y="267.06" width="24.21" height="84.26" transform="translate(1483.36 -857.95) rotate(90.27)"/>
        <rect class="cls-9" x="1126.93" y="299.15" width="61.35" height="19.98" transform="matrix(0, 1, -1, 0, 1472.25, -846.99)"/>
        <rect class="cls-9" x="1126.6" y="310.37" width="20.95" height="60.74" transform="translate(1483.23 -794.7) rotate(90.27)"/>
        <path class="cls-10" d="M1174.9,333.21h.55a10.2,10.2,0,0,1,10.2,10.2v5.24a0,0,0,0,1,0,0h-21a0,0,0,0,1,0,0v-5.24A10.2,10.2,0,0,1,1174.9,333.21Z" transform="translate(1521.68 -832.61) rotate(90.27)"/>
        <rect class="cls-9" x="1126.9" y="247.99" width="20.95" height="60.74" transform="matrix(0, 1, -1, 0, 1421.14, -857.68)"/>
        <path class="cls-10" d="M1175.19,270.83h.55a10.2,10.2,0,0,1,10.2,10.2v5.24a0,0,0,0,1,0,0h-21a0,0,0,0,1,0,0V281A10.2,10.2,0,0,1,1175.19,270.83Z" transform="translate(1459.6 -895.58) rotate(90.27)"/>
        <rect class="cls-11" x="1091.97" y="273.64" width="20.95" height="9.12" transform="translate(1385.88 -822.91) rotate(90.27)"/>
        <rect class="cls-11" x="1091.68" y="336.02" width="20.95" height="9.12" transform="matrix(0, 1, -1, 0, 1447.97, -759.94)"/>
        <line class="cls-4" x1="1210.81" y1="297.28" x2="1210.7" y2="321.5"/>
        <rect class="cls-10" x="1257.72" y="297.89" width="12.57" height="23.5" transform="matrix(0, 1, -1, 0, 1579.66, -952.88)"/>
        <rect class="cls-5" x="1153.42" y="299.15" width="8.38" height="19.98" transform="translate(1472.25 -846.99) rotate(90.27)"/>
        <rect class="cls-5" x="1100.73" y="274.04" width="20.95" height="8.39" transform="matrix(0, 1, -1, 0, 1394.72, -831.63)"/>
        <rect class="cls-5" x="1153.08" y="274.29" width="20.95" height="8.39" transform="translate(1447.57 -883.73) rotate(90.27)"/>
        <rect class="cls-5" x="1100.43" y="336.42" width="20.95" height="8.39" transform="translate(1456.8 -768.65) rotate(90.27)"/>
        <rect class="cls-5" x="1152.78" y="336.67" width="20.95" height="8.39" transform="translate(1509.65 -820.75) rotate(90.27)"/>
        <line class="cls-4" x1="1167.66" y1="297.56" x2="1147.68" y2="297.47"/>
        <line class="cls-4" x1="1167.54" y1="321.29" x2="1147.57" y2="321.2"/>
        <line class="cls-4" x1="1167.7" y1="288.98" x2="1147.72" y2="288.89"/>
        <line class="cls-4" x1="1167.5" y1="330.41" x2="1147.52" y2="330.32"/>
        <rect class="cls-1" x="1145.42" y="264.64" width="4.72" height="22.82" transform="translate(1429.29 -870.4) rotate(90.27)"/>
        <rect class="cls-1" x="1145.41" y="267" width="4.72" height="22.82" transform="translate(1431.64 -868.02) rotate(90.27)"/>
        <rect class="cls-1" x="1143.93" y="329.8" width="7.08" height="22.82" transform="translate(1494.13 -804.62) rotate(90.27)"/>
        <rect class="cls-5" x="1117.1" y="306.29" width="24.21" height="5.43" transform="translate(1443.57 -818.72) rotate(90.27)"/>
        <rect class="cls-4" x="1187.12" y="301.03" width="8.38" height="16.53" transform="translate(1506.27 -880.53) rotate(90.27)"/>
      </g>
      <rect class="cls-12" x="0.5" y="0.5" width="2590.57" height="2590.57"/>
    </g>
  </g>
</svg>
