<svg xmlns="http://www.w3.org/2000/svg" viewBox="0 0 2591.57 2591.57">
  <defs>
    <style>
      .cls-1 {
        fill: #0bf8f9;
      }

      .cls-2 {
        fill: #938a8a;
      }

      .cls-3 {
        fill: #727272;
      }

      .cls-4 {
        fill: #c1c1c1;
      }

      .cls-5 {
        fill: #262324;
        opacity: 0.6;
      }

      .cls-6 {
        fill: #9e9d9d;
        stroke: #515151;
        stroke-width: 3px;
      }

      .cls-6, .cls-8 {
        stroke-miterlimit: 10;
      }

      .cls-7 {
        fill: #e25346;
      }

      .cls-8 {
        fill: none;
        stroke: #262324;
      }
    </style>
  </defs>
  <g id="Calque_2" data-name="Calque 2">
    <g id="Calque_1-2" data-name="Calque 1">
      <g>
        <path class="cls-1" d="M1180.85,2140.47l-20.78,2a104.27,104.27,0,0,1-8.39-101.51l19.5-1.86Z"/>
        <path class="cls-2" d="M1355.71,2085.56l-63,6a42.18,42.18,0,0,0-2.43-25.64l63-6a105.32,105.32,0,0,1,2,12.74A101,101,0,0,1,1355.71,2085.56Zm12.35,80.82s0-.13,0-.14a13.94,13.94,0,0,0-15.21-12.56l-15.75,1.51-.12-.11,65.42-33.7a8.85,8.85,0,0,0,4.75-8.69l-1.35-14.16-122.51,11.69a42.13,42.13,0,1,1-5.78-60.81L1400,2037.72l-1.35-14.15a8.85,8.85,0,0,0-6.31-7.64l-100.42-29.47a103.66,103.66,0,0,0-27.07-7.29,8.82,8.82,0,0,0-9.91,7.94l-24.81,2.36a8.84,8.84,0,0,0-11.24-5.92,104.28,104.28,0,0,0-71.16,108.93,103.51,103.51,0,0,0,37.39,70.46h0a104.13,104.13,0,0,0,53.08,23,8.84,8.84,0,0,0,9.92-7.94l24.81-2.37a8.84,8.84,0,0,0,11.24,5.92,103.24,103.24,0,0,0,21.8-10.15l12.21,10.84c.08.07.16.15.24.21a8.79,8.79,0,0,0,6.57,2h.19l30.33-2.89a13.94,13.94,0,0,0,12.56-15.17Z"/>
        <rect class="cls-3" x="1324.85" y="1976.66" width="7.96" height="143.71" transform="translate(3241.86 531.1) rotate(84.55)"/>
        <rect class="cls-4" x="1324.09" y="1968.68" width="7.96" height="143.71" transform="translate(3233.23 524.64) rotate(84.55)"/>
        <polygon class="cls-4" points="1304.41 2117.8 1296.68 2108.94 1405.94 2100.11 1406.69 2108.04 1304.41 2117.8"/>
        <rect class="cls-3" x="1329.97" y="2030.27" width="7.96" height="143.71" transform="translate(3299.86 574.53) rotate(84.55)"/>
        <circle class="cls-5" cx="1190.51" cy="2119.81" r="9.67"/>
        <circle class="cls-5" cx="1184.48" cy="2056.58" r="9.67"/>
        <polygon class="cls-3" points="1247.79 2128.55 1246.61 2178.18 1272.92 2175.67 1262.37 2127.16 1247.79 2128.55"/>
        <polygon class="cls-3" points="1238.96 2036.01 1228.41 1987.5 1254.72 1984.99 1253.54 2034.62 1238.96 2036.01"/>
        <circle class="cls-6" cx="1251.64" cy="2082.56" r="47.54"/>
        <circle class="cls-6" cx="1251.64" cy="2082.56" r="21.61"/>
        <line class="cls-6" x1="1305.96" y1="2171.44" x2="1269.99" y2="2126.43"/>
        <line class="cls-6" x1="1336.97" y1="2155.08" x2="1294.05" y2="2105.93"/>
        <rect class="cls-7" x="1324.48" y="2091.52" width="17.63" height="31.04" transform="translate(3304.16 579.64) rotate(84.55)"/>
        <rect class="cls-7" x="1347.36" y="2159.53" width="12.39" height="16.89" transform="matrix(0.09, 1, -1, 0.09, 3383.16, 614.6)"/>
        <line class="cls-6" x1="1219.48" y1="2047.56" x2="1179.74" y2="2006.99"/>
        <line class="cls-6" x1="1226.74" y1="2123.7" x2="1195.4" y2="2171.05"/>
        <line class="cls-6" x1="1204.32" y1="2087.08" x2="1147.72" y2="2092.48"/>
      </g>
      <rect class="cls-8" x="0.5" y="0.5" width="2590.57" height="2590.57"/>
    </g>
  </g>
</svg>
