<svg xmlns="http://www.w3.org/2000/svg" viewBox="0 0 1011.09 1011.09">
  <defs>
    <style>
      .cls-1 {
        fill: none;
      }

      .cls-2 {
        fill: #c6c6c6;
      }

      .cls-3 {
        fill: #9e9d9d;
      }

      .cls-4 {
        fill: #777;
      }
    </style>
  </defs>
  <g id="Calque_2" data-name="Calque 2">
    <g id="Calque_1-2" data-name="Calque 1">
      <g>
        <rect class="cls-1" width="1011.09" height="1011.09"/>
        <g>
          <path class="cls-2" d="M513.76,354.72A10.71,10.71,0,0,1,503,365.43V344A10.72,10.72,0,0,1,513.76,354.72Z"/>
          <path class="cls-2" d="M503,330.15v9.69h-25.1A37.19,37.19,0,0,1,503,330.15Z"/>
          <path class="cls-2" d="M503,369.55v21.62H474.1a37.2,37.2,0,0,1-8.38-21.62Z"/>
          <path class="cls-2" d="M503,395.34v9.56a37.24,37.24,0,0,1-25-9.56Z"/>
          <path class="cls-3" d="M513.73,354.69A10.69,10.69,0,0,0,503,344h29.05a37.18,37.18,0,0,1,8.26,21.39H503A10.69,10.69,0,0,0,513.73,354.69Z"/>
          <path class="cls-3" d="M528.15,339.84H503v-9.69A37.22,37.22,0,0,1,528.15,339.84Z"/>
          <path class="cls-2" d="M503,344v21.39H465.73A37.19,37.19,0,0,1,474,344a36,36,0,0,1,3.94-4.16"/>
          <path class="cls-3" d="M540.36,369.55A37.2,37.2,0,0,1,532,391.17H503V369.55Z"/>
          <path class="cls-3" d="M528,395.34a37.26,37.26,0,0,1-25,9.56v-9.56Z"/>
          <path class="cls-3" d="M532,391.17a37.23,37.23,0,0,1-4,4.17H503v-4.17Z"/>
          <path class="cls-3" d="M540.42,367.52c0,.68,0,1.36-.06,2H503v-4.16h37.31C540.4,366.09,540.42,366.81,540.42,367.52Z"/>
          <path class="cls-4" d="M512.12,354.69a9.07,9.07,0,0,1-9.08,9.08V345.62A9.07,9.07,0,0,1,512.12,354.69Z"/>
          <path class="cls-3" d="M503,345.62v18.15a9.08,9.08,0,1,1,0-18.15Z"/>
          <line class="cls-1" x1="503.04" y1="344" x2="503.04" y2="339.84"/>
          <path class="cls-3" d="M503,365.39v4.16H465.72c0-.67-.05-1.35-.05-2s0-1.43.06-2.13Z"/>
          <path class="cls-4" d="M540.42,367.52c0,.68,0,1.36-.06,2H503v-4.16h37.31C540.4,366.09,540.42,366.81,540.42,367.52Z"/>
          <path class="cls-3" d="M503,391.17v4.17h-25a38.25,38.25,0,0,1-4-4.17Z"/>
          <path class="cls-4" d="M532,391.17a37.23,37.23,0,0,1-4,4.17H503v-4.17Z"/>
          <path class="cls-3" d="M503,339.84V344H474a36,36,0,0,1,3.94-4.16Z"/>
          <path class="cls-4" d="M532.09,344H503v-4.16h25.11A37.84,37.84,0,0,1,532.09,344Z"/>
          <line class="cls-1" x1="503.04" y1="357" x2="503.04" y2="344"/>
        </g>
        <g>
          <path class="cls-2" d="M513.76,622.44A10.71,10.71,0,0,1,503,633.16V611.73A10.72,10.72,0,0,1,513.76,622.44Z"/>
          <path class="cls-2" d="M503,597.88v9.68h-25.1A37.23,37.23,0,0,1,503,597.88Z"/>
          <path class="cls-2" d="M503,637.28V658.9H474.1a37.2,37.2,0,0,1-8.38-21.62Z"/>
          <path class="cls-2" d="M503,663.07v9.56a37.24,37.24,0,0,1-25-9.56Z"/>
          <path class="cls-3" d="M513.73,622.42A10.69,10.69,0,0,0,503,611.73h29.05a37.15,37.15,0,0,1,8.26,21.38H503A10.68,10.68,0,0,0,513.73,622.42Z"/>
          <path class="cls-3" d="M528.15,607.56H503v-9.68A37.26,37.26,0,0,1,528.15,607.56Z"/>
          <path class="cls-2" d="M503,611.73v21.38H465.73a37.43,37.43,0,0,1,12.21-25.55"/>
          <path class="cls-3" d="M540.36,637.28A37.2,37.2,0,0,1,532,658.9H503V637.28Z"/>
          <path class="cls-3" d="M528,663.07a37.26,37.26,0,0,1-25,9.56v-9.56Z"/>
          <path class="cls-3" d="M532,658.9a37.23,37.23,0,0,1-4,4.17H503V658.9Z"/>
          <path class="cls-3" d="M540.42,635.25c0,.68,0,1.36-.06,2H503v-4.17h37.31C540.4,633.82,540.42,634.54,540.42,635.25Z"/>
          <path class="cls-4" d="M512.12,622.42A9.07,9.07,0,0,1,503,631.5V613.34A9.08,9.08,0,0,1,512.12,622.42Z"/>
          <path class="cls-3" d="M503,613.34V631.5a9.08,9.08,0,1,1,0-18.16Z"/>
          <line class="cls-1" x1="503.04" y1="611.73" x2="503.04" y2="607.56"/>
          <path class="cls-3" d="M503,633.11v4.17H465.72c0-.67-.05-1.35-.05-2s0-1.43.06-2.14Z"/>
          <path class="cls-4" d="M540.42,635.25c0,.68,0,1.36-.06,2H503v-4.17h37.31C540.4,633.82,540.42,634.54,540.42,635.25Z"/>
          <path class="cls-3" d="M503,658.9v4.17h-25a38.25,38.25,0,0,1-4-4.17Z"/>
          <path class="cls-4" d="M532,658.9a37.23,37.23,0,0,1-4,4.17H503V658.9Z"/>
          <path class="cls-3" d="M503,607.56v4.17H474a37,37,0,0,1,3.94-4.17Z"/>
          <path class="cls-4" d="M532.09,611.73H503v-4.17h25.11A38.86,38.86,0,0,1,532.09,611.73Z"/>
          <line class="cls-1" x1="503.04" y1="624.73" x2="503.04" y2="611.73"/>
        </g>
        <g>
          <path class="cls-2" d="M646.57,485.33a10.72,10.72,0,0,1-10.72,10.72V474.62A10.72,10.72,0,0,1,646.57,485.33Z"/>
          <path class="cls-2" d="M635.85,460.76v9.69h-25.1A37.24,37.24,0,0,1,635.85,460.76Z"/>
          <path class="cls-2" d="M635.85,500.17v21.62H606.91a37.22,37.22,0,0,1-8.38-21.62Z"/>
          <path class="cls-2" d="M635.85,526v9.55a37.23,37.23,0,0,1-25-9.55Z"/>
          <path class="cls-3" d="M646.54,485.31a10.69,10.69,0,0,0-10.69-10.69h29A37.07,37.07,0,0,1,673.16,496H635.85A10.68,10.68,0,0,0,646.54,485.31Z"/>
          <path class="cls-3" d="M661,470.45h-25.1v-9.69A37.22,37.22,0,0,1,661,470.45Z"/>
          <path class="cls-2" d="M635.85,474.62V496H598.54a37.13,37.13,0,0,1,8.27-21.38,36.13,36.13,0,0,1,3.94-4.17"/>
          <path class="cls-3" d="M673.17,500.17a37.22,37.22,0,0,1-8.38,21.62H635.85V500.17Z"/>
          <path class="cls-3" d="M660.81,526a37.21,37.21,0,0,1-25,9.55V526Z"/>
          <path class="cls-3" d="M664.79,521.79a37.32,37.32,0,0,1-4,4.17h-25v-4.17Z"/>
          <path class="cls-3" d="M673.22,498.14c0,.68,0,1.36-.05,2H635.85V496h37.31C673.2,496.71,673.22,497.42,673.22,498.14Z"/>
          <path class="cls-4" d="M644.93,485.31a9.07,9.07,0,0,1-9.08,9.08V476.23A9.08,9.08,0,0,1,644.93,485.31Z"/>
          <path class="cls-3" d="M635.85,476.23v18.16a9.08,9.08,0,0,1,0-18.16Z"/>
          <line class="cls-1" x1="635.85" y1="474.62" x2="635.85" y2="470.45"/>
          <path class="cls-3" d="M635.85,496v4.17H598.53c0-.67-.06-1.35-.06-2s0-1.43.07-2.14Z"/>
          <path class="cls-4" d="M673.22,498.14c0,.68,0,1.36-.05,2H635.85V496h37.31C673.2,496.71,673.22,497.42,673.22,498.14Z"/>
          <path class="cls-3" d="M635.85,521.79V526h-25a38.25,38.25,0,0,1-4-4.17Z"/>
          <path class="cls-4" d="M664.79,521.79a37.32,37.32,0,0,1-4,4.17h-25v-4.17Z"/>
          <path class="cls-3" d="M635.85,470.45v4.17h-29a36.13,36.13,0,0,1,3.94-4.17Z"/>
          <path class="cls-4" d="M664.89,474.62h-29v-4.17H661A36.13,36.13,0,0,1,664.89,474.62Z"/>
          <line class="cls-1" x1="635.85" y1="487.61" x2="635.85" y2="474.62"/>
        </g>
        <g>
          <path class="cls-2" d="M382.75,485.33A10.72,10.72,0,0,1,372,496.05V474.62A10.72,10.72,0,0,1,382.75,485.33Z"/>
          <path class="cls-2" d="M372,460.76v9.69h-25.1A37.22,37.22,0,0,1,372,460.76Z"/>
          <path class="cls-2" d="M372,500.17v21.62H343.09a37.22,37.22,0,0,1-8.38-21.62Z"/>
          <path class="cls-2" d="M372,526v9.55a37.23,37.23,0,0,1-25-9.55Z"/>
          <path class="cls-3" d="M382.72,485.31A10.69,10.69,0,0,0,372,474.62h29A37.13,37.13,0,0,1,409.34,496H372A10.68,10.68,0,0,0,382.72,485.31Z"/>
          <path class="cls-3" d="M397.13,470.45H372v-9.69A37.22,37.22,0,0,1,397.13,470.45Z"/>
          <path class="cls-2" d="M372,474.62V496H334.72A37.13,37.13,0,0,1,343,474.62a36.13,36.13,0,0,1,3.94-4.17"/>
          <path class="cls-3" d="M409.35,500.17A37.22,37.22,0,0,1,401,521.79H372V500.17Z"/>
          <path class="cls-3" d="M397,526a37.25,37.25,0,0,1-25,9.55V526Z"/>
          <path class="cls-3" d="M401,521.79a38.25,38.25,0,0,1-4,4.17H372v-4.17Z"/>
          <path class="cls-3" d="M409.4,498.14c0,.68,0,1.36,0,2H372V496h37.31C409.38,496.71,409.4,497.42,409.4,498.14Z"/>
          <path class="cls-4" d="M381.11,485.31a9.07,9.07,0,0,1-9.08,9.08V476.23A9.08,9.08,0,0,1,381.11,485.31Z"/>
          <path class="cls-3" d="M372,476.23v18.16a9.08,9.08,0,0,1,0-18.16Z"/>
          <line class="cls-1" x1="372.03" y1="474.62" x2="372.03" y2="470.45"/>
          <path class="cls-3" d="M372,496v4.17H334.71c0-.67-.06-1.35-.06-2s0-1.43.07-2.14Z"/>
          <path class="cls-4" d="M409.4,498.14c0,.68,0,1.36,0,2H372V496h37.31C409.38,496.71,409.4,497.42,409.4,498.14Z"/>
          <path class="cls-3" d="M372,521.79V526h-25a38.25,38.25,0,0,1-4-4.17Z"/>
          <path class="cls-4" d="M401,521.79a38.25,38.25,0,0,1-4,4.17H372v-4.17Z"/>
          <path class="cls-3" d="M372,470.45v4.17H343a36.13,36.13,0,0,1,3.94-4.17Z"/>
          <path class="cls-4" d="M401.07,474.62H372v-4.17h25.1A37,37,0,0,1,401.07,474.62Z"/>
          <line class="cls-1" x1="372.03" y1="487.61" x2="372.03" y2="474.62"/>
        </g>
      </g>
    </g>
  </g>
</svg>
