<svg xmlns="http://www.w3.org/2000/svg" xmlns:xlink="http://www.w3.org/1999/xlink" viewBox="0 0 1011.09 1011.09">
  <defs>
    <style>
      .cls-1, .cls-11 {
        fill: none;
      }

      .cls-2 {
        fill: #e64e5a;
      }

      .cls-3 {
        opacity: 0.31;
        fill: url(#Dégradé_sans_nom_9);
      }

      .cls-4 {
        fill: #e2ad84;
      }

      .cls-5 {
        fill: #e8b05d;
      }

      .cls-6 {
        fill: #f6c980;
      }

      .cls-7 {
        fill: #f3c881;
      }

      .cls-8 {
        fill: #e8bd83;
      }

      .cls-9 {
        fill: #995c26;
      }

      .cls-10 {
        clip-path: url(#clip-path);
      }

      .cls-11 {
        stroke: #995c26;
        stroke-miterlimit: 10;
      }

      .cls-12 {
        clip-path: url(#clip-path-2);
      }

      .cls-13 {
        fill: #ce9772;
      }
    </style>
    <linearGradient id="Dégradé_sans_nom_9" data-name="Dégradé sans nom 9" x1="266.06" y1="263.74" x2="760.15" y2="664.79" gradientUnits="userSpaceOnUse">
      <stop offset="0"/>
      <stop offset="1" stop-opacity="0"/>
    </linearGradient>
    <clipPath id="clip-path">
      <circle class="cls-1" cx="461.77" cy="459.22" r="29.01"/>
    </clipPath>
    <clipPath id="clip-path-2">
      <circle class="cls-1" cx="607.41" cy="459.22" r="29.01"/>
    </clipPath>
  </defs>
  <g id="Calque_2" data-name="Calque 2">
    <g id="Calque_1-2" data-name="Calque 1">
      <g>
        <rect class="cls-2" width="1011.09" height="1011.09"/>
        <polyline class="cls-3" points="412.43 641.62 661.83 1011.09 1007.63 1011.09 1007.63 439.56 540.6 178.29 521.84 403.45"/>
        <path class="cls-4" d="M533.54,207.49v33.3a118.78,118.78,0,0,0-53.61,14.06l-8.33-8.59c.12-.09.25-.13.38-.21l54.21-34Z"/>
        <path class="cls-4" d="M656.75,459.2a49.34,49.34,0,1,1-49.33-49.29A49,49,0,0,1,656.75,459.2Z"/>
        <polygon class="cls-4" points="474.08 626.06 424.01 626.06 419.74 612.29 474.08 626.06"/>
        <path class="cls-4" d="M511.1,459.2a49.34,49.34,0,1,1-49.34-49.29A49,49,0,0,1,511.1,459.2Z"/>
        <rect class="cls-4" x="512.85" y="536.24" width="45.23" height="17.48"/>
        <path class="cls-4" d="M533.54,230.18v10.61a118.78,118.78,0,0,0-53.61,14.06c-53.82,28.6-91.74,97.39-91.74,177.76a74.3,74.3,0,0,0,.38,8.6c.3,3.89.86,9.27,1.84,16.58h-1l5.6,30.44,3.72,20.31,16.33,88.79-27.62-88.79-6.32-20.31-8.26-26.51H374c-1.36-9.66-2-16.24-2.26-20.43a63.66,63.66,0,0,1-.26-6.41c0-84.82,41.3-157.58,100.13-188.62.12-.09.25-.13.38-.21a136.15,136.15,0,0,1,54.21-15.61C528.63,230.27,531.06,230.18,533.54,230.18Z"/>
        <path class="cls-4" d="M647.3,488.23a49.32,49.32,0,0,1-79.77,0Z"/>
        <path class="cls-4" d="M501.65,488.23a49.32,49.32,0,0,1-79.77,0Z"/>
        <rect class="cls-4" x="512.85" y="536.24" width="45.23" height="17.48"/>
        <polygon class="cls-4" points="533.54 641.15 535.47 641.62 412.43 641.62 375.45 508.54 369.81 488.23 395.03 488.23 398.75 508.54 415.08 597.33 419.74 612.29 474.08 626.06 533.54 641.15"/>
        <path class="cls-4" d="M398.75,508.54H372.84A13.66,13.66,0,0,1,359.2,494.9V454.84a13.58,13.58,0,0,1,12.53-13.55,5.19,5.19,0,0,1,1.11-.08h15.73c.3,3.89.86,9.27,1.84,16.58h-1l5.6,30.44Z"/>
        <path class="cls-5" d="M682.62,432.61c-4.62-81.74-41.52-151.72-95.55-179.3a113,113,0,0,0-51.65-12.52h-1.88V536.24h24.54v17.49H533.54v87.42l1.93.47,61.34-15.56,56.26-14.28L671.5,510l.38-1.49c.82-3.08,2.7-10.65,4.71-20.31,2.82-13.77,5.81-31.76,6.15-47,0-.95,0-1.84,0-2.74C682.79,436.46,682.74,434.49,682.62,432.61ZM647.3,488.23a49.3,49.3,0,1,1,9.45-29A49.27,49.27,0,0,1,647.3,488.23Z"/>
        <path class="cls-6" d="M533.54,536.24V240.79a118.78,118.78,0,0,0-53.61,14.06c-53.82,28.6-91.74,97.39-91.74,177.76a74.3,74.3,0,0,0,.38,8.6c.3,3.89.86,9.27,1.84,16.58h-1l5.6,30.44,3.72,20.31,16.33,88.79,4.66,15,54.34,13.76,59.46,15.09V553.73H512.85V536.24Zm-31.89-48a49.3,49.3,0,1,1,9.45-29A49.29,49.29,0,0,1,501.65,488.23Z"/>
        <polygon class="cls-7" points="419.74 612.29 417.73 611.78 415.08 597.33 419.74 612.29"/>
        <path class="cls-7" d="M511.1,459.2a49.34,49.34,0,1,1-49.34-49.29A49,49,0,0,1,511.1,459.2Z"/>
        <rect class="cls-7" x="512.85" y="536.24" width="45.23" height="17.48"/>
        <path class="cls-7" d="M656.75,459.2a49.34,49.34,0,1,1-49.33-49.29A49,49,0,0,1,656.75,459.2Z"/>
        <path class="cls-8" d="M656.75,459.2a49.34,49.34,0,1,1-49.33-49.29A49,49,0,0,1,656.75,459.2Z"/>
        <path class="cls-8" d="M511.1,459.2a49.34,49.34,0,1,1-49.34-49.29A49,49,0,0,1,511.1,459.2Z"/>
        <circle class="cls-8" cx="461.77" cy="459.22" r="29.01"/>
        <circle class="cls-8" cx="607.41" cy="459.22" r="29.01"/>
        <circle class="cls-8" cx="607.41" cy="459.22" r="29.01"/>
        <rect class="cls-9" x="512.85" y="536.24" width="45.23" height="17.48"/>
        <g class="cls-10">
          <line class="cls-11" x1="441.36" y1="388.33" x2="441.36" y2="513.77"/>
          <line class="cls-11" x1="455.23" y1="388.33" x2="455.23" y2="513.77"/>
          <line class="cls-11" x1="469.09" y1="388.33" x2="469.09" y2="513.77"/>
          <line class="cls-11" x1="482.17" y1="388.33" x2="482.17" y2="513.77"/>
        </g>
        <g class="cls-12">
          <line class="cls-11" x1="587.01" y1="388.33" x2="587.01" y2="513.77"/>
          <line class="cls-11" x1="600.87" y1="388.33" x2="600.87" y2="513.77"/>
          <line class="cls-11" x1="614.74" y1="388.33" x2="614.74" y2="513.77"/>
          <line class="cls-11" x1="627.82" y1="388.33" x2="627.82" y2="513.77"/>
        </g>
        <path class="cls-13" d="M711.77,456.38v37a15.19,15.19,0,0,1-15.22,15.18h-4.66L656.75,641.62H535.47l61.34-15.56,56.26-14.28L671.5,510l.38-1.49c.82-3.08,2.7-10.65,4.71-20.31,2.82-13.77,5.81-31.76,6.15-47,0-.95,0-1.84,0-2.74,0-2,0-4-.17-5.86-4.62-81.74-41.52-151.72-95.55-179.3a113,113,0,0,0-51.65-12.52h-1.88v-62.5h7.06v33.47l54.08,32.62.51.3c58.95,30.09,99,104,104.1,190.2.13,2,.17,4.1.17,6.28v.3A15.23,15.23,0,0,1,711.77,456.38Z"/>
        <rect class="cls-4" x="526.19" y="178.29" width="7.35" height="58.35"/>
        <line class="cls-1" x1="533.54" y1="553.73" x2="533.54" y2="536.24"/>
      </g>
    </g>
  </g>
</svg>
