<svg xmlns="http://www.w3.org/2000/svg" xmlns:xlink="http://www.w3.org/1999/xlink" viewBox="0 0 1011.09 1011.09">
  <defs>
    <style>
      .cls-1 {
        fill: #b91f3d;
      }

      .cls-2 {
        opacity: 0.31;
        fill: url(#Dégradé_sans_nom_9);
      }

      .cls-3 {
        fill: #1f1f1f;
      }

      .cls-4 {
        fill: #2a2a2a;
      }

      .cls-5 {
        fill: #0d0d0d;
      }

      .cls-6 {
        fill: #6c6c6c;
      }

      .cls-7 {
        fill: #545252;
      }
    </style>
    <linearGradient id="Dégradé_sans_nom_9" data-name="Dégradé sans nom 9" x1="321.95" y1="309.1" x2="782.07" y2="682.57" gradientUnits="userSpaceOnUse">
      <stop offset="0"/>
      <stop offset="1" stop-opacity="0"/>
    </linearGradient>
  </defs>
  <g id="Calque_2" data-name="Calque 2">
    <g id="Calque_1-2" data-name="Calque 1">
      <g>
        <rect class="cls-1" width="1011.09" height="1011.09"/>
        <polyline class="cls-2" points="300.93 570.39 661.83 1011.09 1007.63 1011.09 1007.63 439.56 617.78 210.55 614.87 456.88"/>
        <path class="cls-3" d="M752.37,566.87c-3.94-10.41-45.87-117.62-116.28-162.56-31-19.79-67.48-27.5-108.68-9.6V178.33c64.06,1.58,117.9,41.78,136.12,96.75.06.19.15.4.21.61.28.79.55,1.67.83,2.65s.49,1.66.72,2.51c.2.64.37,1.3.56,2C673.77,312,687.94,387,687.94,387Z"/>
        <path class="cls-4" d="M527.41,394.71v3.62a18.26,18.26,0,0,0-.22-3.2,2.83,2.83,0,0,0-.4-.17Z"/>
        <path class="cls-4" d="M527.41,178.33V394.71l-.62.25c-43.1-19-81.09-9.61-113,12.4-3.13,2.17-6.22,4.45-9.24,6.86-.88.68-1.75,1.39-2.6,2.11-1.19,1-2.39,2-3.56,3-.92.79-1.83,1.6-2.75,2.43s-1.91,1.73-2.87,2.62-1.92,1.79-2.86,2.71-2,2-3,3-2,2-3,3c-1.45,1.49-2.87,3-4.28,4.55-.94,1-1.9,2.07-2.81,3.12s-1.86,2.08-2.77,3.15c-1.83,2.11-3.64,4.26-5.41,6.43-.81,1-1.6,2-2.41,3-3.28,4.13-6.46,8.35-9.5,12.59-.77,1-1.52,2.11-2.26,3.15-3.77,5.33-7.33,10.7-10.72,16-1.3,2.09-2.6,4.16-3.85,6.2-.64,1.05-1.28,2.11-1.9,3.16s-1.26,2.08-1.85,3.11-1.22,2.08-1.81,3.11c-1.54,2.62-3,5.22-4.41,7.77-.81,1.47-1.6,2.92-2.39,4.37-2.15,4-4.18,7.84-6,11.55-.77,1.53-1.54,3-2.28,4.54q-2.91,5.88-5.37,11.16c-.34.72-.66,1.41-1,2.11s-.64,1.36-.94,2l-.25.58c-.34.77-.69,1.51-1,2.24q-2,4.41-3.56,8.11c-.28.62-.54,1.22-.77,1.81-.72,1.69-1.36,3.24-1.92,4.63-.23.55-.44,1.06-.64,1.57-.36.86-.66,1.64-1,2.37a.15.15,0,0,0,0,.08c-.29.73-.55,1.39-.76,1.94-.11.3-.22.58-.32.83,7-20,62.59-178.73,62.59-180a642.07,642.07,0,0,1,15.87-101.2h0c14.12-62.2,72.92-108.85,143.34-108.85C524.83,178.29,526.11,178.31,527.41,178.33Z"/>
        <rect class="cls-4" x="473.31" y="525.48" width="12.19" height="40.33"/>
        <rect class="cls-4" x="496.51" y="499.08" width="12.19" height="66.73"/>
        <path class="cls-4" d="M527.41,394.71v3.62a18.26,18.26,0,0,0-.22-3.2,2.83,2.83,0,0,0-.4-.17Z"/>
        <rect class="cls-4" x="544.15" y="499.08" width="12.19" height="66.73"/>
        <rect class="cls-4" x="567.38" y="525.48" width="12.19" height="40.33"/>
        <path class="cls-5" d="M527.41,466V398.33a18.26,18.26,0,0,0-.22-3.2,2.83,2.83,0,0,0-.4-.17c-43.1-19-81.09-9.61-113,12.4-3.13,2.17-6.22,4.45-9.24,6.86-.88.68-1.75,1.39-2.6,2.11-1.19,1-2.39,2-3.56,3-.92.79-1.83,1.6-2.75,2.43s-1.91,1.73-2.87,2.62-1.92,1.79-2.86,2.71-2,2-3,3-2,2-3,3c-1.45,1.49-2.87,3-4.28,4.55-.94,1-1.9,2.07-2.81,3.12s-1.86,2.08-2.77,3.15c-1.83,2.11-3.64,4.26-5.41,6.43-.81,1-1.6,2-2.41,3-3.28,4.13-6.46,8.35-9.5,12.59-.77,1-1.52,2.11-2.26,3.15-3.77,5.33-7.33,10.7-10.72,16-1.3,2.09-2.6,4.16-3.85,6.2-.64,1.05-1.28,2.11-1.9,3.16s-1.26,2.08-1.85,3.11-1.22,2.08-1.81,3.11c-1.54,2.62-3,5.22-4.41,7.77-.81,1.47-1.6,2.92-2.39,4.37-2.15,4-4.18,7.84-6,11.55-.77,1.53-1.54,3-2.28,4.54q-2.91,5.88-5.37,11.16c-.34.72-.66,1.41-1,2.11s-.64,1.36-.94,2l-.25.58c-.34.77-.69,1.51-1,2.24q-2,4.41-3.56,8.11c-.28.62-.54,1.22-.77,1.81-.72,1.69-1.36,3.24-1.92,4.63-.23.55-.44,1.06-.64,1.57-.36.86-.66,1.64-1,2.37a.15.15,0,0,0,0,.08c-.29.73-.55,1.39-.76,1.94-.11.3-.22.58-.32.83-.19.49-.34.92-.47,1.24-.19.55-.3.83-.3.83l226.48,76.76V565.81h-6.72V466ZM485.5,565.81H473.31V525.48H485.5Zm23.2,0H496.51V499.08H508.7Z"/>
        <rect class="cls-5" x="473.31" y="525.48" width="12.19" height="40.33"/>
        <rect class="cls-5" x="496.51" y="499.08" width="12.19" height="66.73"/>
        <path class="cls-5" d="M752.37,566.87c-3.94-10.41-45.87-117.62-116.28-162.56-31-19.79-67.48-27.5-108.68-9.6V466h5.47v99.82h-5.47v81.34l225.26-79.47S752.56,567.41,752.37,566.87Zm-196-1.06H544.15V499.08h12.19Zm23.22,0H567.38V525.48h12.18Z"/>
        <path class="cls-5" d="M527.41,394.71v3.62a18.26,18.26,0,0,0-.22-3.2,2.83,2.83,0,0,0-.4-.17Z"/>
        <rect class="cls-5" x="544.15" y="499.08" width="12.19" height="66.73"/>
        <rect class="cls-5" x="567.38" y="525.48" width="12.19" height="40.33"/>
        <rect class="cls-6" x="520.69" y="465.99" width="6.71" height="99.82"/>
        <rect class="cls-7" x="527.41" y="465.99" width="5.48" height="99.82"/>
        <rect class="cls-7" x="544.15" y="499.08" width="12.19" height="66.73"/>
        <rect class="cls-7" x="567.38" y="525.48" width="12.19" height="40.33"/>
        <rect class="cls-6" x="496.51" y="499.08" width="12.19" height="66.73"/>
        <rect class="cls-6" x="473.31" y="525.48" width="12.19" height="40.33"/>
      </g>
    </g>
  </g>
</svg>
