<svg xmlns="http://www.w3.org/2000/svg" viewBox="0 0 2591.57 2591.57">
  <defs>
    <style>
      .cls-1 {
        fill: #9e9d9d;
      }

      .cls-2 {
        fill: #e2e2e2;
      }

      .cls-3, .cls-9 {
        fill: #262324;
      }

      .cls-3 {
        opacity: 0.62;
      }

      .cls-4 {
        fill: #424041;
      }

      .cls-5 {
        fill: #848484;
      }

      .cls-15, .cls-6, .cls-8 {
        fill: none;
        stroke-miterlimit: 10;
      }

      .cls-6 {
        stroke: #515151;
      }

      .cls-6, .cls-8 {
        stroke-width: 4px;
      }

      .cls-7 {
        fill: #515151;
      }

      .cls-8 {
        stroke: #9e9d9d;
      }

      .cls-9 {
        opacity: 0.6;
      }

      .cls-10 {
        fill: #fff;
      }

      .cls-11 {
        fill: #febf5d;
      }

      .cls-12 {
        fill: #e25346;
      }

      .cls-13, .cls-14 {
        fill: #f9b756;
      }

      .cls-14 {
        opacity: 0.46;
      }

      .cls-15 {
        stroke: #262324;
      }
    </style>
  </defs>
  <g id="Calque_2" data-name="Calque 2">
    <g id="Calque_1-2" data-name="Calque 1">
      <g>
        <g>
          <path class="cls-1" d="M1862.76,1324.46v1.29q0,13.53-.62,26.9-1.29,28.65-5.33,56.52-2,14.2-4.77,28.19a580.61,580.61,0,0,1-1139.46,0q-2.76-14-4.78-28.19-4-27.87-5.34-56.52-.6-13.38-.61-26.9v-1.29c.4-179.33,82.1-339.56,210.22-445.77a579.83,579.83,0,0,1,740.48,0C1780.66,984.9,1862.37,1145.13,1862.76,1324.46Z"/>
          <ellipse class="cls-2" cx="1282.31" cy="1325.74" rx="491.48" ry="580.45"/>
          <ellipse class="cls-1" cx="1282.31" cy="1325.74" rx="432.72" ry="580.45"/>
          <ellipse class="cls-2" cx="1282.31" cy="1325.74" rx="259.13" ry="580.45"/>
          <ellipse class="cls-1" cx="1282.31" cy="1325.74" rx="198.66" ry="580.45"/>
          <path class="cls-3" d="M1282.31,745.36c-1.1,0-2.2,0-3.3,0,1.1,0,2.2-.09,3.3-.09s2.13,0,3.18.09C1284.42,745.36,1283.37,745.36,1282.31,745.36Z"/>
          <path class="cls-4" d="M1862.14,1352.65q-1.29,28.65-5.33,56.52h-1149q-4-27.86-5.31-56.52Z"/>
          <path class="cls-2" d="M1856.81,1409.17q-2,14.2-4.77,28.19H712.58q-2.76-14-4.78-28.19Z"/>
          <path class="cls-2" d="M1685,1743.77a578.89,578.89,0,0,1-68.66,56.71H948.27a578.79,578.79,0,0,1-68.65-56.71Z"/>
          <path class="cls-2" d="M1652.55,878.69H912.07A580.52,580.52,0,0,1,993.77,822h577.07A580.62,580.62,0,0,1,1652.55,878.69Z"/>
          <path class="cls-2" d="M1862.76,1324.46v1.29q0,13.53-.62,26.9H701.85v-28.19Z"/>
          <path class="cls-3" d="M1309.52,746c1.87,2.37,3.75,4.76,5.6,7.18a75.1,75.1,0,0,0-29.63-7.8Q1297.55,745.43,1309.52,746Z"/>
          <path class="cls-3" d="M1481.2,1303.49c0,7.46-.07,14.86-.23,22.26,0-45-1.75-88.77-5.07-130.82Q1481.14,1248,1481.2,1303.49Z"/>
          <path class="cls-2" d="M1480.35,1279.76c-87.68-10.33-163.25-84.23-173.56-173.86-9.84-85.53,43.06-156.75,122.06-172.07,22.71,72.44,39.21,161.79,47,260.83a1.14,1.14,0,0,1,0,.27C1478.09,1222.5,1479.58,1250.83,1480.35,1279.76Z"/>
          <path class="cls-5" d="M1501.34,1281a172.53,172.53,0,0,1-21-1.26c-.77-28.93-2.26-57.26-4.45-84.83a1.14,1.14,0,0,0,0-.27c-7.82-99-24.32-188.39-47-260.83a170,170,0,0,1,32.22-3c96.33,0,183.43,78.4,194.55,175.11S1597.68,1281,1501.34,1281Z"/>
          <ellipse class="cls-1" cx="1481.2" cy="1105.9" rx="150.39" ry="168.76" transform="translate(-344.98 1392.33) rotate(-45.66)"/>
          <ellipse class="cls-6" cx="1481.2" cy="1105.9" rx="150.31" ry="168.66" transform="translate(-344.98 1392.33) rotate(-45.66)"/>
          <path class="cls-7" d="M1537.65,1240.69a110.61,110.61,0,0,1-38.55-7.06c-2.45-.92-4.87-1.9-7.25-3-45.47-20.32-81-69.33-86.76-126.55,0-.28,0-.53-.06-.81-.24-2.49-.43-5-.55-7.46C1401,1024.25,1447,967.51,1510.2,967.51c65.64,0,125,61.16,132.56,136.59S1603.27,1240.69,1537.65,1240.69Z"/>
          <ellipse class="cls-8" cx="1481.2" cy="1104.1" rx="34.19" ry="38.37" transform="translate(-343.69 1391.79) rotate(-45.66)"/>
          <line class="cls-8" x1="1575.19" y1="987.83" x2="1507.68" y2="1082.4"/>
          <line class="cls-8" x1="1447.62" y1="1114.13" x2="1322.06" y2="1071.45"/>
          <path class="cls-7" d="M1405,1103.29,1321,1074.7l2.22-6.51,81.31,27.64C1404.6,1098.31,1404.79,1100.8,1405,1103.29Z"/>
          <path class="cls-1" d="M1448.72,1110.87l-2.21,6.52-41.48-14.1c-.24-2.49-.43-5-.55-7.46Z"/>
          <line class="cls-8" x1="1485.38" y1="1140.4" x2="1499.55" y2="1265.44"/>
          <path class="cls-7" d="M1503,1265.05l-6.85.77-4-35.17c2.39,1.08,4.81,2.06,7.27,3Z"/>
          <path class="cls-1" d="M1499.42,1233.63c-2.46-.92-4.88-1.9-7.27-3L1482,1140.78l6.82-.77Z"/>
          <rect class="cls-2" x="869.55" y="1071.45" width="194.37" height="68.95"/>
          <rect class="cls-2" x="1091.41" y="1556.21" width="393.96" height="47.33"/>
          <path class="cls-9" d="M1481,1325.75v.17c0,320.47-89,580.26-198.66,580.26a69.48,69.48,0,0,1-11.78-1c-.31.33-.62.64-.92.94-276.76-5.93-505.82-205.55-557-468.75q-2.76-14-4.78-28.19-3.94-27.47-5.29-55.71-.68-13.76-.66-27.64c0-319.48,258.09-578.67,577.16-580.44,1.1,0,2.2,0,3.3,0s2.11,0,3.18,0a75.1,75.1,0,0,1,29.63,7.8c44.73,21.71,84.41,87.1,113.73,180.65-79,15.32-131.9,86.54-122.06,172.07,10.31,89.63,85.88,163.53,173.56,173.86C1480.77,1294.92,1481,1310.28,1481,1325.75Z"/>
          <circle class="cls-10" cx="955.23" cy="1381.37" r="5.19"/>
          <circle class="cls-10" cx="982.3" cy="1381.37" r="5.19"/>
          <circle class="cls-10" cx="982.3" cy="1051.33" r="5.19"/>
          <circle class="cls-10" cx="1552.19" cy="1381.37" r="5.19"/>
          <circle class="cls-10" cx="1009.37" cy="1381.37" r="5.19"/>
          <circle class="cls-10" cx="1575.6" cy="1723.54" r="5.19"/>
          <circle class="cls-11" cx="1552.19" cy="1723.54" r="5.19"/>
          <circle class="cls-11" cx="1525.69" cy="1723.54" r="5.19"/>
          <circle class="cls-10" cx="1148.17" cy="1625.78" r="5.19"/>
          <circle class="cls-10" cx="1175.23" cy="1625.78" r="5.19"/>
          <circle class="cls-12" cx="1202.3" cy="1625.78" r="5.19"/>
          <circle class="cls-12" cx="1751.79" cy="1380.91" r="5.19"/>
          <circle class="cls-12" cx="1728.11" cy="1380.91" r="5.19"/>
          <circle class="cls-10" cx="1701.47" cy="1380.91" r="5.19"/>
          <circle class="cls-11" cx="1673.56" cy="1380.91" r="5.19"/>
          <circle class="cls-11" cx="1507.23" cy="1380.91" r="5.19"/>
          <circle class="cls-12" cx="1202.3" cy="908.58" r="5.19"/>
          <circle class="cls-13" cx="1228.75" cy="908.58" r="5.19"/>
          <rect class="cls-14" x="1237.99" y="1370.69" width="108.1" height="17.51"/>
        </g>
        <rect class="cls-15" x="0.5" y="0.5" width="2590.57" height="2590.57"/>
      </g>
    </g>
  </g>
</svg>
