<svg xmlns="http://www.w3.org/2000/svg" xmlns:xlink="http://www.w3.org/1999/xlink" viewBox="0 0 1011.09 1011.09">
  <defs>
    <style>
      .cls-1 {
        fill: #175ea5;
      }

      .cls-2 {
        opacity: 0.31;
        fill: url(#Dégradé_sans_nom_9);
      }

      .cls-3 {
        fill: #a5948b;
      }

      .cls-4 {
        fill: #916446;
      }

      .cls-5 {
        fill: #988579;
      }

      .cls-6 {
        fill: #603e1d;
      }

      .cls-7 {
        fill: #e64e5a;
      }

      .cls-8 {
        fill: #cc3b4d;
      }

      .cls-9 {
        fill: #6d4729;
      }

      .cls-10 {
        fill: #774b32;
      }

      .cls-11 {
        fill: #1f2e2d;
      }

      .cls-12 {
        fill: none;
      }
    </style>
    <linearGradient id="Dégradé_sans_nom_9" data-name="Dégradé sans nom 9" x1="411.48" y1="381.77" x2="817.17" y2="711.07" gradientUnits="userSpaceOnUse">
      <stop offset="0"/>
      <stop offset="1" stop-opacity="0"/>
    </linearGradient>
  </defs>
  <g id="Calque_2" data-name="Calque 2">
    <g id="Calque_1-2" data-name="Calque 1">
      <g>
        <rect class="cls-1" width="1011.09" height="1011.09"/>
        <polyline class="cls-2" points="367.88 643.03 661.83 1011.09 1007.63 1011.09 1007.63 439.56 731.74 219.83 606.46 486.32"/>
        <circle class="cls-3" cx="427.73" cy="273.06" r="76.04"/>
        <circle class="cls-4" cx="427.73" cy="273.06" r="48.45"/>
        <circle class="cls-5" cx="678.88" cy="273.06" r="76.04"/>
        <circle class="cls-6" cx="678.88" cy="273.06" r="48.45"/>
        <path class="cls-7" d="M367.88,398.08V643l86.27-24.42,81.19,40.5,6-3.44v-431A173.47,173.47,0,0,0,367.88,398.08Z"/>
        <path class="cls-8" d="M544.36,466.81c-1,0-2,0-3,.05v-45.5h9a14,14,0,0,1,13.57,10.71l3.58,15a16,16,0,0,1-15.58,19.74Z"/>
        <path class="cls-8" d="M714.81,398.08V650.61l-101.89-36-71.58,41V558.84c.59,0,1.18,0,1.78,0h.19A138.57,138.57,0,0,0,569.75,556h0a137.57,137.57,0,0,0,82.42-216l-1.08-1.45q-2.85-3.78-6-7.35c-.78-.9-1.58-1.79-2.38-2.67l-.15-.16q-.63-.69-1.29-1.38c-.79-.84-1.6-1.68-2.42-2.5-.29-.3-.58-.59-.88-.88l-.68-.67c-.45-.44-.9-.88-1.36-1.31s-.92-.87-1.38-1.29l-1.4-1.28q-1.41-1.28-2.85-2.49c-2-1.74-4.15-3.43-6.3-5.05-.37-.28-.74-.56-1.12-.83-1.11-.83-2.24-1.63-3.38-2.42-.42-.3-.84-.59-1.27-.87s-1.05-.71-1.58-1.05-1.06-.7-1.6-1l-1.61-1q-3.22-2-6.59-3.82l-1.68-.9-1.7-.88c-.57-.29-1.14-.58-1.71-.85-1.14-.57-2.3-1.11-3.46-1.64-.58-.27-1.16-.53-1.75-.78s-1.17-.52-1.76-.76-1.25-.52-1.87-.78l-1.69-.67-1.8-.69c-.6-.23-1.2-.45-1.81-.66s-1.22-.44-1.83-.64c-1.22-.42-2.44-.82-3.68-1.2l-1.4-.43-2.33-.67c-1.25-.36-2.51-.69-3.77-1l-1.9-.46-1.91-.43-1.37-.29c-2.1-.44-4.23-.83-6.37-1.17-.65-.11-1.31-.21-2-.3-1.31-.19-2.62-.36-3.94-.51l-1.78-.2-2.27-.21c-1.19-.11-2.39-.19-3.59-.26l-2.34-.12-2-.07-2.1,0h-1.78V224.62A173.46,173.46,0,0,1,714.81,398.08Z"/>
        <path class="cls-6" d="M678.87,421.36A137.57,137.57,0,0,1,569.8,555.94c27.25-6.57,46.62-23.38,46.62-43.09,0-25.42-32.26-46-72.06-46h7.53a16,16,0,0,0,15.58-19.74l-3.58-15a14,14,0,0,0-13.57-10.71h-9V374c53.85,0,98.84-15.2,109.8-35.5l1.08,1.45A136.94,136.94,0,0,1,678.87,421.36Z"/>
        <path class="cls-9" d="M551.89,466.81h-7.53c-1,0-2,0-3,.05v92c.59,0,1.18,0,1.78,0h-1.78A137.54,137.54,0,0,1,430.47,340l1.08-1.45A137.35,137.35,0,0,1,535.42,284l2.05-.07,2.1,0h1.77V421.36h9a14,14,0,0,1,13.57,10.71l3.58,15A16,16,0,0,1,551.89,466.81Z"/>
        <path class="cls-10" d="M616.42,512.85c0,19.71-19.37,36.52-46.62,43.09h0a138.57,138.57,0,0,1-26.44,2.93h-.19c-.6,0-1.19,0-1.78,0v-92c1,0,2-.05,3-.05C584.16,466.81,616.42,487.43,616.42,512.85Z"/>
        <path class="cls-4" d="M541.34,466.86v92c-38.39-1-69-21.21-69-46S503,467.86,541.34,466.86Z"/>
        <path class="cls-4" d="M569.75,556a108.82,108.82,0,0,1-25.39,2.94h-1.05A138.57,138.57,0,0,0,569.75,556Z"/>
        <rect class="cls-11" x="524.8" y="474.51" width="39.14" height="12.37"/>
        <ellipse class="cls-5" cx="606.46" cy="465.32" rx="50.46" ry="38.01"/>
        <path class="cls-10" d="M651.14,338.53c-11,20.3-55.95,35.5-109.8,35.5V283.84h1.78l2.1,0,2,.07A137.33,137.33,0,0,1,651.14,338.53Z"/>
        <path class="cls-4" d="M539.57,283.85h1.77V374c-53.84,0-98.83-15.2-109.79-35.5a22.28,22.28,0,0,1-1.08-2.27c24.31-30.89,63.09-51.24,107-52.37Z"/>
        <path class="cls-4" d="M652.22,336.26a22.28,22.28,0,0,1-1.08,2.27,137.34,137.34,0,0,0-105.92-54.64C589.12,285,627.91,305.37,652.22,336.26Z"/>
        <path class="cls-5" d="M599.36,493.67c-8.69-2.58,28.95-13.58,28.95-13.58"/>
        <ellipse class="cls-3" cx="482.64" cy="465.32" rx="50.46" ry="38.01"/>
        <path class="cls-11" d="M551.89,466.81H530.8a16,16,0,0,1-15.38-20.51l4.35-14.9a14,14,0,0,1,13.39-10h17.16a14,14,0,0,1,13.57,10.71l3.58,15A16,16,0,0,1,551.89,466.81Z"/>
        <line class="cls-12" x1="541.34" y1="735.73" x2="541.34" y2="655.67"/>
        <line class="cls-12" x1="541.34" y1="224.62" x2="541.34" y2="173.5"/>
      </g>
    </g>
  </g>
</svg>
