<svg xmlns="http://www.w3.org/2000/svg" xmlns:xlink="http://www.w3.org/1999/xlink" viewBox="0 0 1011.51 1019.08">
  <defs>
    <style>
      .cls-1 {
        fill: #8b929f;
      }

      .cls-2 {
        opacity: 0.31;
        fill: url(#Dégradé_sans_nom_9);
      }

      .cls-3 {
        fill: #fff;
      }

      .cls-4 {
        fill: #0b0b0c;
      }

      .cls-5 {
        fill: #dbdce0;
      }

      .cls-6 {
        fill: #b7b6bb;
      }

      .cls-7 {
        fill: #333;
      }

      .cls-8 {
        fill: #0e0f0f;
      }

      .cls-9 {
        fill: none;
      }
    </style>
    <linearGradient id="Dégradé_sans_nom_9" data-name="Dégradé sans nom 9" x1="340.01" y1="280.43" x2="805.83" y2="658.54" gradientUnits="userSpaceOnUse">
      <stop offset="0"/>
      <stop offset="1" stop-opacity="0"/>
    </linearGradient>
  </defs>
  <g id="Calque_2" data-name="Calque 2">
    <g id="Calque_1-2" data-name="Calque 1">
      <g>
        <rect class="cls-1" width="1011.09" height="1011.09"/>
        <polyline class="cls-2" points="369.43 634.26 714.74 1019.08 1011.51 1019.08 1011.51 391 573.44 231.17"/>
        <path class="cls-3" d="M321.28,359s1-152.3,164-146.33c-1.26,0-.07,146.41-.07,146.41Z"/>
        <rect class="cls-4" x="321.28" y="358.97" width="164.01" height="22.51"/>
        <path class="cls-3" d="M485.28,381.48V626s-.68,0-1.84.08c-5.29.16-20.25.65-20.25-.08-68.5,51.23-112.2-1.76-131.12-35.87-7.45-13.47-11.06-24-10.78-24-86.58-58-6-127.24-6-127.24h-8.38l-4.21-57.44Z"/>
        <path class="cls-5" d="M335.84,381.48l27,14.92s-8.69,37.67,28,29.94,94.4-44.86,94.4-44.86Z"/>
        <path class="cls-6" d="M485,545.75c.08,30,.24,62.21.32,80.25-.36,0-.76,0-1.24,0-5.33.16-16.68.52-19.92.2-.61,0-.93-.12-.93-.24-68.5,51.23-112.2-1.76-131.12-35.87,1.33-17,17.48-76.37,150.2-113.32l3-.85a8.76,8.76,0,0,0-.12,1.65C484.88,484.74,484.88,514,485,545.75Z"/>
        <path class="cls-7" d="M408.68,566.68v45.41a22.71,22.71,0,1,1,0-45.41Z"/>
        <path class="cls-8" d="M431.41,589.41a22.7,22.7,0,0,1-22.73,22.68V566.68A22.74,22.74,0,0,1,431.41,589.41Z"/>
        <path class="cls-5" d="M646.29,359s-1-152.3-164-146.33c1.26,0,.07,146.41.07,146.41Z"/>
        <rect class="cls-4" x="482.27" y="358.97" width="164.01" height="22.51" transform="translate(1128.56 740.45) rotate(-180)"/>
        <path class="cls-5" d="M482.28,381.48V626s.68,0,1.85.08c5.29.16,20.24.65,20.24-.08,68.5,51.23,112.2-1.76,131.12-35.87,7.45-13.47,11.06-24,10.78-24,86.59-58,6-127.24,6-127.24h8.38l4.21-57.44Z"/>
        <path class="cls-6" d="M631.72,381.48l-27,14.92s8.69,37.67-28,29.94-94.41-44.86-94.41-44.86Z"/>
        <path class="cls-6" d="M635.48,590.13c-18.8,33.91-62.09,86.46-129.92,36.76-.4-.29-.8-.57-1.2-.89,0,.64-13.79.24-20.32,0-.68,0-1.29,0-1.77,0-5.25-18.07-5.65-49.82-4.53-79.45,1.29-36.51,4.93-69.74,4.53-69.74,1,.28,1.93.52,2.89.8C618,514.57,634.16,573.13,635.48,590.13Z"/>
        <circle class="cls-8" cx="558.89" cy="589.4" r="22.71"/>
        <path class="cls-8" d="M524.76,589.41c0,15.91-7.69,29.82-19.2,37.48-.4-.29-.8-.57-1.2-.89,0,.64-13.79.24-20.32,0-5.33.16-16.68.52-19.92.2-11-7.73-18.32-21.36-18.32-36.83,0-21.25,13.75-39,31.94-42.86a35.64,35.64,0,0,1,7.22-.8h.32C507.09,545.75,524.76,565.31,524.76,589.41Z"/>
        <rect class="cls-5" x="481.17" y="565.29" width="8.23" height="61.6"/>
        <rect class="cls-5" x="498.82" y="583.98" width="8.23" height="42.91"/>
        <rect class="cls-5" x="464.3" y="583.98" width="8.23" height="42.91"/>
        <line class="cls-9" x1="408.68" y1="619.95" x2="408.68" y2="612.09"/>
        <line class="cls-9" x1="408.68" y1="566.68" x2="408.68" y2="554.61"/>
        <path class="cls-7" d="M558.89,566.68v45.41a22.71,22.71,0,1,1,0-45.41Z"/>
        <path class="cls-8" d="M581.61,589.41a22.7,22.7,0,0,1-22.72,22.68V566.68A22.73,22.73,0,0,1,581.61,589.41Z"/>
      </g>
    </g>
  </g>
</svg>
