<svg xmlns="http://www.w3.org/2000/svg" xmlns:xlink="http://www.w3.org/1999/xlink" viewBox="0 0 1011.09 1011.09">
  <defs>
    <style>
      .cls-1 {
        fill: #44a49d;
      }

      .cls-2 {
        opacity: 0.31;
        fill: url(#Dégradé_sans_nom_9);
      }

      .cls-3 {
        fill: #512d14;
      }

      .cls-4 {
        fill: #efa28a;
      }

      .cls-5 {
        fill: #ce896e;
      }

      .cls-6 {
        fill: #e9a686;
      }

      .cls-7 {
        fill: #060908;
      }

      .cls-8 {
        fill: #1e1f21;
      }
    </style>
    <linearGradient id="Dégradé_sans_nom_9" data-name="Dégradé sans nom 9" x1="373.87" y1="300.27" x2="818.85" y2="661.45" gradientUnits="userSpaceOnUse">
      <stop offset="0"/>
      <stop offset="1" stop-opacity="0"/>
    </linearGradient>
  </defs>
  <g id="Calque_2" data-name="Calque 2">
    <g id="Calque_1-2" data-name="Calque 1">
      <g>
        <rect class="cls-1" width="1011.09" height="1011.09"/>
        <polyline class="cls-2" points="340.87 568.58 714.32 1011.09 1011.09 1011.09 1011.09 383 656.08 231.68"/>
        <polygon class="cls-3" points="645.26 486.64 645.26 487.03 645.24 487.09 645.26 486.64"/>
        <path class="cls-3" d="M645.56,481.41l-.3,5.15A48.27,48.27,0,0,1,645.56,481.41Z"/>
        <path class="cls-4" d="M645.56,481.41l-.3,5.15A48.27,48.27,0,0,1,645.56,481.41Z"/>
        <path class="cls-5" d="M693.26,478.66c-7.07,14.68-17.7,25.24-27.33,28.38-7.08,30.11-19.19,57-34.94,78.88-25.88,35.93-61.59,58.13-101,58.13V351.67c79.65,2.14,108.79-28.46,108.79-28.46-8.33,33.79,13,51.38,13,51.38l-6.16,106.82a48.27,48.27,0,0,0-.3,5.15v.08l0,.45,0-.06,27.79-40.62,11.51-16.84a13.41,13.41,0,0,1,6.45,1.26C702.35,436.27,703.35,457.7,693.26,478.66Z"/>
        <path class="cls-6" d="M530,351.67V644.05c-40.72,0-77.46-23.66-103.51-61.67-15.56-22.68-27.32-50.49-33.82-81.41-6.85-4.2-13.8-10.87-19.59-19.39C360,462.33,357.8,441,368.2,433.94a14.61,14.61,0,0,1,9.74-2.21l8.92,13.1v0L400,464.22l15.57,22.87V394.5c17.6-5.55,22.23-38,22.23-38L451.73,351v38.88s19.44-42.59,45.37-40.74C508.9,350.59,519.84,351.4,530,351.67Z"/>
        <polygon class="cls-4" points="645.26 486.64 645.26 487.03 645.24 487.09 645.26 486.64"/>
        <path class="cls-4" d="M645.56,481.41l-.3,5.15A48.27,48.27,0,0,1,645.56,481.41Z"/>
        <path class="cls-7" d="M711.33,442.44s30.86,68.31-16,123.3c.67,2.68,9.9,22.54,10.18,23.16L681.77,578l8.13,25.8-23.76-19.69-23.08,2-12.07-.2c15.75-21.85,27.86-48.77,34.94-78.88,9.63-3.14,20.26-13.7,27.33-28.38,10.09-21,9.09-42.39-2.25-47.83a13.41,13.41,0,0,0-6.45-1.26l-11.51,16.84L645.26,487v-.47l.3-5.15,6.16-106.82s-21.3-17.59-13-51.38c0,0-29.14,30.6-108.79,28.46V181.58c23.24-1.39,49.34,2,75.46,15.35,78.62,40.13,86.64,89.86,94.68,107.52s0,94.66,32.09,133.18C732.19,444,711.33,442.44,711.33,442.44Z"/>
        <path class="cls-8" d="M530,181.58V351.67c-10.12-.27-21.06-1.08-32.86-2.54-25.93-1.85-45.37,40.74-45.37,40.74V351l-13.89,5.55s-4.63,32.41-22.23,38v92.59L400,464.22l-13.18-19.37v0l-8.92-13.1a14.61,14.61,0,0,0-9.74,2.21C357.8,441,360,462.33,373,481.58c5.79,8.52,12.74,15.19,19.59,19.39,6.5,30.92,18.26,58.73,33.82,81.41l-8.9-.16s-32.48,9.74-49.38-11.7c0-.64-27.3-1.94-27.3-1.94l27.94-33.14S331,496.51,344,447.87c2.16-10.81-16.21-17.29-16.21-17.29l20.9-17.06c-9.54-28.25-14.67-59.71-8-89.82,19.25-86.64,107.51-117.14,107.51-117.14S483.24,184.37,530,181.58Z"/>
        <polygon class="cls-3" points="645.26 486.64 645.26 487.03 645.24 487.09 645.26 486.64"/>
      </g>
    </g>
  </g>
</svg>
