<svg xmlns="http://www.w3.org/2000/svg" xmlns:xlink="http://www.w3.org/1999/xlink" viewBox="0 0 1011.09 1019.08">
  <defs>
    <style>
      .cls-1 {
        fill: #f3bb4e;
      }

      .cls-2 {
        opacity: 0.31;
        fill: url(#Dégradé_sans_nom_9);
      }

      .cls-3 {
        fill: #82776e;
      }

      .cls-4 {
        fill: #6b5e55;
      }

      .cls-5 {
        fill: #9e948b;
      }

      .cls-6 {
        fill: #84786e;
      }

      .cls-7 {
        fill: #8b929f;
      }

      .cls-8 {
        fill: #727a87;
      }

      .cls-9 {
        fill: #6b5d53;
      }

      .cls-10 {
        fill: #685c53;
      }

      .cls-11 {
        fill: #4f433b;
      }

      .cls-12 {
        fill: #e25346;
      }

      .cls-13 {
        fill: none;
      }
    </style>
    <linearGradient id="Dégradé_sans_nom_9" data-name="Dégradé sans nom 9" x1="269.84" y1="226.08" x2="776.37" y2="637.23" gradientUnits="userSpaceOnUse">
      <stop offset="0"/>
      <stop offset="1" stop-opacity="0"/>
    </linearGradient>
  </defs>
  <g id="Calque_2" data-name="Calque 2">
    <g id="Calque_1-2" data-name="Calque 1">
      <g>
        <rect class="cls-1" width="1011.09" height="1011.09"/>
        <polyline class="cls-2" points="411.76 708.22 711.53 1019.08 1008.3 1019.08 1008.3 391 533.79 160.04"/>
        <path class="cls-3" d="M489.37,160l-14.24,69.88a120.31,120.31,0,0,0-83.56,114.55v.34h1.24V372.1h-1.24V438H514.11V160ZM463.24,363.47a15.55,15.55,0,1,1,4.56-11A15.51,15.51,0,0,1,463.24,363.47Z"/>
        <rect class="cls-3" x="391.57" y="344.81" width="1.24" height="27.29"/>
        <path class="cls-3" d="M463.24,341.47a15.55,15.55,0,1,1-11-4.56A15.51,15.51,0,0,1,463.24,341.47Z"/>
        <path class="cls-3" d="M540.65,376.65a15.57,15.57,0,1,1-11-4.55A15.47,15.47,0,0,1,540.65,376.65Z"/>
        <path class="cls-3" d="M581.91,341.47a15.55,15.55,0,1,1-11-4.56A15.51,15.51,0,0,1,581.91,341.47Z"/>
        <rect class="cls-3" x="630.34" y="344.81" width="1.77" height="27.29"/>
        <path class="cls-3" d="M392.81,531.84l18.95,140.93H514.11V531.84Zm59.42,110.74c-11.35,0-20.56-16.69-20.56-37.27S440.88,568,452.23,568s20.58,16.69,20.58,37.27S463.6,642.58,452.23,642.58Z"/>
        <path class="cls-3" d="M472.81,605.31c0,20.58-9.21,37.27-20.58,37.27s-20.56-16.69-20.56-37.27S440.88,568,452.23,568,472.81,584.73,472.81,605.31Z"/>
        <polygon class="cls-4" points="630.35 531.84 611.39 672.76 514.11 672.76 514.11 531.84 630.35 531.84"/>
        <polygon class="cls-5" points="514.11 438.01 514.11 485.28 418.39 485.28 391.57 438.01 514.11 438.01"/>
        <polygon class="cls-6" points="632.12 438.01 606 485.28 514.11 485.28 514.11 438.01 632.12 438.01"/>
        <path class="cls-7" d="M418.39,485.28v46.56h95.72V485.28ZM486.82,525a16.47,16.47,0,1,1,16.47-16.47A16.47,16.47,0,0,1,486.82,525Z"/>
        <path class="cls-7" d="M503.29,508.55a16.47,16.47,0,1,1-16.47-16.47A16.47,16.47,0,0,1,503.29,508.55Z"/>
        <rect class="cls-8" x="514.11" y="485.28" width="90.66" height="46.56"/>
        <path class="cls-9" d="M514.11,387.65V438h118V372.1h-1.77V344.81h1.77v-.34A120.3,120.3,0,0,0,548,229.75L533.79,160H514.11V387.65m67.8-24.18a15.55,15.55,0,1,1,4.56-11A15.5,15.5,0,0,1,581.91,363.47Z"/>
        <path class="cls-10" d="M503.29,508.55a16.47,16.47,0,1,1-16.47-16.47A16.47,16.47,0,0,1,503.29,508.55Z"/>
        <circle class="cls-10" cx="536.34" cy="508.55" r="16.47"/>
        <rect class="cls-3" x="343.6" y="344.81" width="49.21" height="27.29"/>
        <rect class="cls-9" x="630.34" y="344.81" width="84.79" height="27.29"/>
        <path class="cls-10" d="M472.81,605.31c0,20.58-9.21,37.27-20.58,37.27s-20.56-16.69-20.56-37.27S440.88,568,452.23,568,472.81,584.73,472.81,605.31Z"/>
        <ellipse class="cls-11" cx="575.92" cy="605.31" rx="20.56" ry="37.27"/>
        <rect class="cls-10" x="411.76" y="672.77" width="102.34" height="35.45"/>
        <rect class="cls-11" x="514.11" y="672.77" width="98.58" height="35.45"/>
        <path class="cls-12" d="M467.8,352.47a15.57,15.57,0,1,1-4.56-11A15.47,15.47,0,0,1,467.8,352.47Z"/>
        <path class="cls-12" d="M586.47,352.47a15.57,15.57,0,1,1-4.56-11A15.47,15.47,0,0,1,586.47,352.47Z"/>
        <path class="cls-12" d="M529.66,387.65a15.55,15.55,0,1,1-4.56-11A15.55,15.55,0,0,1,529.66,387.65Z"/>
        <line class="cls-13" x1="514.11" y1="771.95" x2="514.11" y2="708.22"/>
      </g>
    </g>
  </g>
</svg>
