<svg xmlns="http://www.w3.org/2000/svg" xmlns:xlink="http://www.w3.org/1999/xlink" viewBox="0 0 1022.32 1019.08">
  <defs>
    <style>
      .cls-1 {
        fill: #175ea5;
      }

      .cls-2 {
        opacity: 0.31;
        fill: url(#Dégradé_sans_nom_9);
      }

      .cls-3 {
        fill: #d3cfc7;
      }

      .cls-4, .cls-6 {
        fill: #9e9d9d;
      }

      .cls-5 {
        fill: #353535;
      }

      .cls-10, .cls-6 {
        stroke: #515151;
        stroke-miterlimit: 10;
        stroke-width: 3px;
      }

      .cls-7 {
        fill: #727272;
      }

      .cls-8 {
        fill: #0bf8f9;
      }

      .cls-9 {
        fill: #e25346;
      }

      .cls-10 {
        fill: none;
      }
    </style>
    <linearGradient id="Dégradé_sans_nom_9" data-name="Dégradé sans nom 9" x1="197.13" y1="155.68" x2="756.39" y2="609.63" gradientUnits="userSpaceOnUse">
      <stop offset="0"/>
      <stop offset="1" stop-opacity="0"/>
    </linearGradient>
  </defs>
  <g id="Calque_2" data-name="Calque 2">
    <g id="Calque_1-2" data-name="Calque 1">
      <g>
        <rect class="cls-1" width="1011.09" height="1011.09"/>
        <polyline class="cls-2" points="309.75 303.06 313.17 522.15 725.55 1019.08 1022.32 1019.08 1022.32 391 557.17 199.06 502.96 335.02"/>
        <g>
          <polygon class="cls-3" points="546.94 600.45 547.03 606.32 547.33 618.99 547.1 625.86 546.36 634.03 544.97 642.39 543.28 649.58 541.58 655.41 540.05 659.96 536.14 669.38 514.89 669.71 512.91 665.66 510.23 659.21 507.15 650.13 505.09 642.38 503.37 633.33 502.64 627.29 502.3 622.05 501.95 601.34 501.41 595.55 547.3 594.84 546.94 600.45"/>
          <polygon class="cls-4" points="487.49 372.88 554.24 371.84 547.3 594.84 501.41 595.55 487.49 372.88"/>
          <polygon class="cls-4" points="309.84 308.81 473.11 264.93 562.37 263.54 729.26 297.9 730.38 369.66 310.89 376.22 309.84 308.81"/>
          <rect class="cls-4" x="724.63" y="296.49" width="11" height="219.12" transform="translate(1466.53 800.63) rotate(179.1)"/>
          <rect class="cls-4" x="685.92" y="297.1" width="11" height="219.12" transform="translate(1389.13 802.45) rotate(179.1)"/>
          <rect class="cls-4" x="350.16" y="302.35" width="11" height="219.12" transform="translate(717.73 818.21) rotate(179.1)"/>
          <rect class="cls-4" x="311.46" y="302.96" width="11" height="219.12" transform="translate(640.34 820.02) rotate(179.1)"/>
          <rect class="cls-4" x="483.17" y="253.15" width="74.13" height="46.61" transform="translate(1044.74 544.74) rotate(179.1)"/>
          <polygon class="cls-5" points="503.9 394.74 538.53 394.2 535.87 447.44 508.23 447.88 503.9 394.74"/>
          <polyline class="cls-6" points="558.18 263.6 558.54 355.54 554.24 371.84"/>
          <polyline class="cls-6" points="480.18 264.82 482.69 356.72 487.49 372.88"/>
          <rect class="cls-5" x="503.65" y="370.97" width="34.64" height="15.87" transform="translate(1047.8 749.62) rotate(179.1)"/>
          <rect class="cls-5" x="503.09" y="334.75" width="34.64" height="15.87" transform="translate(1046.1 677.19) rotate(179.1)"/>
          <rect class="cls-7" x="502.4" y="264.21" width="34.64" height="69.11" transform="translate(1044.04 589.36) rotate(179.1)"/>
          <rect class="cls-7" x="536.03" y="205.5" width="21.69" height="58.27" transform="translate(1097.36 460.69) rotate(179.1)"/>
          <rect class="cls-7" x="479.72" y="206.38" width="21.69" height="58.27" transform="translate(984.75 463.34) rotate(179.1)"/>
          <rect class="cls-8" x="479.21" y="200.11" width="21.69" height="6.28" transform="matrix(-1, 0.02, -0.02, -1, 983.23, 398.8)"/>
          <rect class="cls-8" x="535.53" y="199.23" width="21.69" height="6.28" transform="translate(1095.85 396.16) rotate(179.1)"/>
          <rect class="cls-9" x="607.01" y="349.8" width="116.89" height="20.3" transform="translate(1336.46 709.44) rotate(179.1)"/>
          <rect class="cls-9" x="310.72" y="354.43" width="116.89" height="20.3" transform="translate(743.98 723.34) rotate(179.1)"/>
          <line class="cls-10" x1="524.35" y1="595.2" x2="522.23" y2="459.19"/>
          <rect class="cls-3" x="606.71" y="331.05" width="116.89" height="18.75" transform="translate(1335.55 670.4) rotate(179.1)"/>
          <rect class="cls-3" x="310.41" y="335.68" width="116.89" height="18.75" transform="translate(743.06 684.3) rotate(179.1)"/>
          <polyline class="cls-10" points="724.05 369.18 723.21 315.4 562.75 288.45"/>
          <polyline class="cls-10" points="475.9 289.81 321.18 330.26 321.88 375.47"/>
        </g>
      </g>
    </g>
  </g>
</svg>
