<svg xmlns="http://www.w3.org/2000/svg" viewBox="0 0 710.33 773.93">
  <defs>
    <style>
      .cls-1 {
        fill: #262324;
      }

      .cls-1, .cls-73 {
        stroke: #e25346;
        stroke-miterlimit: 10;
        stroke-width: 21px;
      }

      .cls-2 {
        fill: #f9b756;
      }

      .cls-3 {
        fill: #e25346;
      }

      .cls-4 {
        fill: #cc3932;
      }

      .cls-5 {
        fill: #f7f5f6;
      }

      .cls-6 {
        fill: #aa9f93;
      }

      .cls-7 {
        fill: #9b8f83;
      }

      .cls-8 {
        fill: #bab1a8;
      }

      .cls-9 {
        fill: #b5aca3;
      }

      .cls-10 {
        fill: #878077;
      }

      .cls-11 {
        fill: #d3cfc7;
      }

      .cls-12, .cls-66 {
        fill: #726a5e;
      }

      .cls-13 {
        fill: #f6f5f6;
      }

      .cls-14 {
        fill: #564c43;
      }

      .cls-15, .cls-70, .cls-72, .cls-73 {
        fill: none;
      }

      .cls-15, .cls-66, .cls-71, .cls-72 {
        stroke: #000;
        stroke-linecap: round;
        stroke-linejoin: round;
      }

      .cls-15, .cls-66, .cls-71 {
        stroke-width: 0.7px;
      }

      .cls-16 {
        fill: #bcb5aa;
      }

      .cls-17 {
        fill: #edebe8;
      }

      .cls-18 {
        fill: #b7aa9e;
      }

      .cls-19 {
        fill: #494038;
      }

      .cls-20 {
        fill: #665c55;
      }

      .cls-21 {
        fill: #756c66;
      }

      .cls-22 {
        fill: #89817d;
      }

      .cls-23 {
        fill: #b2a08e;
      }

      .cls-24 {
        fill: #cec8c0;
      }

      .cls-25 {
        fill: #bcb6ac;
      }

      .cls-26 {
        fill: #564b44;
      }

      .cls-27 {
        fill: #605651;
      }

      .cls-28 {
        fill: #706863;
      }

      .cls-29 {
        fill: #7a716c;
      }

      .cls-30 {
        fill: #7c736d;
      }

      .cls-31, .cls-71 {
        fill: #d6bb7f;
      }

      .cls-32 {
        fill: #847d79;
      }

      .cls-33 {
        fill: #999492;
      }

      .cls-34 {
        fill: #b2b1b1;
      }

      .cls-35 {
        fill: #6d635b;
      }

      .cls-36 {
        fill: #847b74;
      }

      .cls-37 {
        fill: #938e8c;
      }

      .cls-38 {
        fill: #7f7b79;
      }

      .cls-39 {
        fill: #b74951;
      }

      .cls-40 {
        fill: #ebeef2;
      }

      .cls-41 {
        fill: #4668bc;
      }

      .cls-42 {
        fill: #bcc6d8;
      }

      .cls-43 {
        fill: #aaa094;
      }

      .cls-44 {
        fill: #998d81;
      }

      .cls-45 {
        fill: #827a6e;
      }

      .cls-46 {
        fill: #bab0a2;
      }

      .cls-47 {
        fill: #a59b92;
      }

      .cls-48 {
        fill: #a59b8c;
      }

      .cls-49 {
        fill: #0c0b06;
      }

      .cls-50 {
        fill: #6b625c;
      }

      .cls-51, .cls-74, .cls-75 {
        fill: #fff;
      }

      .cls-51 {
        opacity: 0.09;
      }

      .cls-52 {
        fill: #7c756b;
      }

      .cls-53 {
        fill: #8c8479;
      }

      .cls-54 {
        fill: #9e948b;
      }

      .cls-55 {
        fill: #c4bfbb;
      }

      .cls-56 {
        fill: #e0dcd7;
      }

      .cls-57 {
        fill: #ddd9d4;
      }

      .cls-58 {
        fill: #5c503a;
      }

      .cls-59 {
        fill: #87786b;
      }

      .cls-60 {
        fill: #96877c;
      }

      .cls-61 {
        fill: #e0d9d3;
      }

      .cls-62 {
        fill: #c9bfb3;
      }

      .cls-63 {
        fill: #d3ccc5;
      }

      .cls-64 {
        fill: #d1c7bf;
      }

      .cls-65 {
        fill: #504531;
      }

      .cls-67 {
        fill: #c9bdb3;
      }

      .cls-68 {
        fill: #a39284;
      }

      .cls-69 {
        fill: #bfb6af;
      }

      .cls-72 {
        stroke-width: 0.5px;
      }

      .cls-75 {
        font-size: 87px;
        font-family: Muli-Black, Muli;
        font-weight: 800;
      }
    </style>
  </defs>
  <g id="Calque_2" data-name="Calque 2">
    <g id="Calque_1-2" data-name="Calque 1">
      <g>
        <circle class="cls-1" cx="355.16" cy="414.63" r="344.66"/>
        <polygon class="cls-2" points="305.52 755.73 266.8 748.5 306.91 649.52 327.56 649.52 305.52 755.73"/>
        <polygon class="cls-2" points="447.37 745.95 403.15 760.66 386.72 649.52 407.37 649.52 447.37 745.95"/>
        <polygon class="cls-3" points="417.3 754.74 378.42 755.73 369.35 607.22 393.7 604.49 386.72 649.52 417.3 754.74"/>
        <polygon class="cls-3" points="338.15 755.73 293.37 755.73 327.56 649.52 329.13 606.3 346.53 607.22 338.15 755.73"/>
        <polygon class="cls-4" points="378.42 755.73 330.36 751.63 346.43 607.22 369.57 607.22 378.42 755.73"/>
        <g>
          <g>
            <path class="cls-5" d="M363,301.21l2.23,6.1.89,2.95,1,3.77,1,4.67.84,5.43.49,5.31.18,4.48-.06,8.25V346l.54,8,.82,12.36L373,399l6.17,87.84.93,12.67v14.07l.21,3.44,29,0v2.09H412v10l65.71-2.54v-2.65h.56v-5h-1v-6l3.28-.61,1.12-.09V462.25h.74V420.57L480,418.44V416.3h2.39l-1.44-4v-3.07h1.44v-19.5h2.07v16h3.59v5.94l-1.28,2.12v2.53h2.14V418l-3,2.6v41.68h1.44v49.92l4.25.71v6h-1.54v5h1.54V526l3.68-.15v6.66h9.17v-7.82h1v-5h-1v-6l4.07-.59.33,0V455.83h.75V414.15L507.26,412v-2.13h2.58l-1.64-4v-3.08h1.45V383.29h2.06v16h3.59v5.93L514,407.34v2.54h2.14v1.66l-3,2.61v41.68h1.44V513l4.25.72v6h-1.54v16.65l2.11,2.4v39h-2.11v2.23l-1.94.68L517,583v2.73a14.22,14.22,0,0,1-10.59,0l-.05-3.15,1.4-1.77-3.28-.83-94.39,17.71v-4h-3.56L406,632l1.39,2.48v15a22.74,22.74,0,0,1-20.65,0V634.65l.79-1.56v-1s-5.71,0-8.51-1.57v-9.45l1.35-5.25v-6.93l-7.51,4.53h-31.6l-7-4.23-.12-110.16,9.76-140.53.84-12.68V332.38l.15-3.41.34-4,.87-5.91,1.07-5.07,1.63-5.94,1.42-4.23,1.05-2.66Z"/>
            <polygon class="cls-6" points="412.02 523.26 406.04 523.26 406.04 516.99 409.35 517.03 409.35 519.13 412.02 519.13 412.02 523.26"/>
            <polygon class="cls-7" points="384.96 523.26 380.34 523.26 380.34 516.99 388.67 517.03 384.96 517.03 384.96 519.13 384.96 523.26"/>
            <rect class="cls-8" x="401.68" y="516.99" width="4.36" height="6.27" transform="translate(807.72 1040.24) rotate(-180)"/>
            <rect class="cls-8" x="384.93" y="516.99" width="4.36" height="6.27" transform="translate(774.21 1040.24) rotate(-180)"/>
            <path class="cls-3" d="M412,523.26l0,4.27s-9.87,1.73-17.18,1.38-14.49-1.54-14.49-1.54v-4.11Z"/>
            <path class="cls-6" d="M412,527.53l.1,9.54s-6.8,1.84-10.42,1.54c0,0,0-9.88,0-9.88S410.85,528,412,527.53Z"/>
            <path class="cls-7" d="M397.55,529v9.91s-11.43-.13-17.21-2c.05,0,0-9.54,0-9.54A98.18,98.18,0,0,0,397.55,529Z"/>
            <polygon class="cls-9" points="397.55 538.86 397.55 538.86 397.51 565.64 385.49 565.55 385.31 554.89 380.35 554.73 380.34 536.91 386.2 537.98 389.88 538.47 391.87 538.61 397.55 538.86"/>
            <path class="cls-10" d="M397.55,568.82a93.53,93.53,0,0,1-17.2-2c0,.14,0,9.18,0,9.18a49,49,0,0,0,17.26,2.81C397.7,578.78,397.55,568.82,397.55,568.82Z"/>
            <polygon class="cls-9" points="406.32 571.52 403.36 571.6 403.43 576 406.39 576.08 406.32 571.52"/>
            <path class="cls-10" d="M412,566.83a34.26,34.26,0,0,1-10.32,1.88v9.83s8.14-1.1,10.18-2.46C411.86,576.23,412,566.83,412,566.83Z"/>
            <polygon class="cls-11" points="406.32 571.52 406.39 576.08 403.43 576 403.36 571.6 406.32 571.52"/>
            <rect class="cls-8" x="409.27" y="547.32" width="2.74" height="16.61"/>
            <polygon class="cls-8" points="406.04 528.36 406.04 538.33 401.68 538.61 401.69 528.73 406.04 528.36"/>
            <path class="cls-8" d="M397.55,529a81.39,81.39,0,0,1-12.62-.82c-.11,0,0,9.71,0,9.71l6.94.77,5.68.25Z"/>
            <polygon class="cls-7" points="384.93 537.84 385.31 554.89 380.35 554.73 380.34 536.91 384.93 537.84"/>
            <polygon class="cls-12" points="385.15 567.73 385.15 577.45 380.33 576.01 380.35 566.83 385.15 567.73"/>
            <polygon class="cls-12" points="406.55 568.23 406.39 577.75 411.87 576.08 412.01 566.83 406.55 568.23"/>
            <polygon class="cls-6" points="407.64 538.07 407.64 568.02 412.01 566.83 412.1 537.07 407.64 538.07"/>
            <polygon class="cls-8" points="401.68 538.61 401.69 568.71 407.64 568.02 407.64 538.07 401.68 538.61"/>
            <polygon class="cls-13" points="401.69 528.73 401.66 564.72 391.87 565.64 391.87 528.95 401.69 528.73"/>
            <rect class="cls-10" x="409.27" y="547.32" width="2.74" height="16.61"/>
            <path class="cls-14" d="M405.14,578v5l-17.63,0v-5a50.42,50.42,0,0,0,10.08.83C401.69,578.54,405.14,578,405.14,578Z"/>
            <line class="cls-15" x1="406.04" y1="528.36" x2="406.04" y2="538.33"/>
            <polygon class="cls-3" points="488.42 532.51 488.31 563.3 450.26 572.09 450.19 569.03 469.02 564.94 469.02 532.51 488.42 532.51"/>
            <polygon class="cls-11" points="468.9 539.66 454.48 539.66 454.48 568.02 469.02 565.08 468.9 539.66"/>
            <polygon class="cls-16" points="429.4 543.63 439.54 543.63 439.54 548.84 447.37 555.62 447.37 578.87 429.42 583.01 429.4 578.54 438.59 576.75 438.38 553.86 429.42 550.17 429.4 543.63"/>
            <polygon class="cls-17" points="429.4 532.51 429.4 557.12 424.34 557.12 416.26 542.13 412.1 542.09 412.1 532.51 429.4 532.51"/>
            <rect class="cls-10" x="429.4" y="556.45" width="4.91" height="17.32" transform="translate(863.7 1130.21) rotate(-180)"/>
            <polygon class="cls-17" points="429.4 539.89 469.02 539.66 469.02 532.51 429.4 532.51 429.4 539.89"/>
            <rect class="cls-14" x="412.1" y="572.14" width="17.29" height="1.52" transform="translate(841.5 1145.79) rotate(-180)"/>
            <rect class="cls-6" x="426.79" y="573.65" width="2.55" height="19.25" transform="translate(856.13 1166.56) rotate(-180)"/>
            <rect class="cls-6" x="420.48" y="573.65" width="2.55" height="19.25" transform="translate(843.51 1166.56) rotate(-180)"/>
            <rect class="cls-6" x="414.55" y="573.65" width="2.55" height="19.25" transform="translate(831.64 1166.56) rotate(-180)"/>
            <rect class="cls-10" x="493.73" y="576.01" width="3.32" height="2.57" transform="translate(990.78 1154.59) rotate(-180)"/>
            <polygon class="cls-18" points="504.5 532.51 488.42 532.51 488.31 563.3 485.58 563.92 485.58 581.13 504.68 577.71 504.68 572.68 490.69 566.83 490.57 544.2 504.46 538.07 504.5 532.51"/>
            <rect class="cls-11" x="493.85" y="576.11" width="3.13" height="2.41" transform="translate(990.83 1154.63) rotate(-180)"/>
            <polygon class="cls-12" points="495.33 532.51 495.33 525.85 412.02 529.08 412.1 532.51 495.33 532.51"/>
            <polygon class="cls-18" points="504.5 544.2 497.59 547.11 497.59 565.11 504.5 567.63 504.5 544.2"/>
            <rect class="cls-19" x="516.75" y="519.7" width="0.74" height="5" transform="translate(1034.24 1044.39) rotate(-180)"/>
            <rect class="cls-19" x="505.54" y="519.7" width="0.6" height="5" transform="translate(1011.68 1044.39) rotate(-180)"/>
            <rect class="cls-20" x="515.07" y="519.7" width="1.68" height="5" transform="translate(1031.81 1044.39) rotate(-180)"/>
            <rect class="cls-20" x="506.14" y="519.7" width="1.45" height="5" transform="translate(1013.73 1044.39) rotate(-180)"/>
            <rect class="cls-21" x="512.97" y="519.7" width="2.1" height="5" transform="translate(1028.03 1044.39) rotate(-180)"/>
            <rect class="cls-22" x="510.3" y="519.7" width="2.62" height="5" transform="translate(1023.23 1044.39) rotate(-180)"/>
            <rect class="cls-21" x="507.59" y="519.7" width="2.62" height="5" transform="translate(1017.81 1044.39) rotate(-180)"/>
            <rect class="cls-5" x="508.57" y="458.8" width="6.27" height="54.29" transform="translate(1023.41 971.88) rotate(-180)"/>
            <path class="cls-17" d="M518.9,513.67a33.69,33.69,0,0,0-14.4,0v6l14.4,0Z"/>
            <polygon class="cls-11" points="516.74 519.66 518.9 519.66 518.9 513.63 516.74 513.28 516.74 519.66"/>
            <polygon class="cls-11" points="506.54 519.66 504.51 519.66 504.51 513.63 506.54 513.28 506.54 519.66"/>
            <rect class="cls-17" x="504.68" y="524.7" width="12.68" height="4.21" transform="translate(1022.05 1053.6) rotate(-180)"/>
            <rect class="cls-23" x="509.17" y="455.73" width="5.48" height="3.09" transform="translate(1023.82 914.55) rotate(-180)"/>
            <rect class="cls-24" x="509.65" y="414.15" width="3.32" height="41.58" transform="translate(1022.62 869.88) rotate(-180)"/>
            <polygon class="cls-23" points="516.17 409.88 516.17 411.54 512.97 414.15 509.65 414.15 507.26 412.01 507.26 409.88 516.17 409.88"/>
            <polygon class="cls-22" points="514.03 409.88 514.03 407.34 515.3 405.22 515.3 399.29 511.71 399.29 511.71 383.29 509.65 383.29 509.65 402.78 508.2 402.78 508.2 405.86 509.84 409.88 514.03 409.88"/>
            <rect class="cls-23" x="504.49" y="528.91" width="13" height="4.93" transform="translate(1021.98 1062.74) rotate(-180)"/>
            <polygon class="cls-5" points="469.02 539.66 454.48 539.72 454.48 568.02 450.19 569.03 450.26 572.09 447.37 572.68 447.37 555.62 439.54 548.84 439.54 543.63 429.4 543.63 429.4 532.51 469.02 532.51 469.02 539.66"/>
            <polygon class="cls-8" points="517.36 536.33 519.47 538.73 519.47 577.71 517.36 577.71 517.36 536.33"/>
            <rect class="cls-11" x="512.97" y="524.7" width="4.4" height="4.22" transform="translate(1030.33 1053.61) rotate(-180)"/>
            <rect class="cls-19" x="489.49" y="518.83" width="0.74" height="5" transform="translate(979.73 1042.66) rotate(-180)"/>
            <rect class="cls-19" x="478.29" y="518.83" width="0.6" height="5" transform="translate(957.17 1042.66) rotate(-180)"/>
            <rect class="cls-20" x="487.81" y="518.83" width="1.68" height="5" transform="translate(977.3 1042.66) rotate(-180)"/>
            <rect class="cls-20" x="478.88" y="518.83" width="1.45" height="5" transform="translate(959.22 1042.66) rotate(-180)"/>
            <rect class="cls-21" x="485.71" y="518.83" width="2.1" height="5" transform="translate(973.52 1042.66) rotate(-180)"/>
            <rect class="cls-22" x="483.05" y="518.83" width="2.62" height="5" transform="translate(968.72 1042.66) rotate(-180)"/>
            <rect class="cls-21" x="480.34" y="518.83" width="2.62" height="5" transform="translate(963.29 1042.66) rotate(-180)"/>
            <rect class="cls-5" x="481.32" y="465.22" width="6.27" height="47" transform="translate(968.9 977.44) rotate(-180)"/>
            <path class="cls-17" d="M491.64,512.81a33.65,33.65,0,0,0-14.39,0v6l14.39,0Z"/>
            <polygon class="cls-11" points="489.48 518.8 491.64 518.8 491.64 512.77 489.48 512.41 489.48 518.8"/>
            <polygon class="cls-11" points="479.29 518.8 477.25 518.8 477.25 512.77 479.29 512.41 479.29 518.8"/>
            <polygon class="cls-11" points="477.73 526.53 490.11 525.85 490.11 523.83 477.73 523.83 477.73 526.53"/>
            <rect class="cls-23" x="481.91" y="462.25" width="5.48" height="3.09" transform="translate(969.3 927.59) rotate(-180)"/>
            <rect class="cls-15" x="482.39" y="420.62" width="3.57" height="41.58" transform="translate(968.35 882.82) rotate(-180)"/>
            <polygon class="cls-23" points="488.91 416.3 488.91 417.97 485.71 420.57 482.39 420.57 480 418.44 480 416.3 488.91 416.3"/>
            <polygon class="cls-22" points="486.77 416.3 486.77 413.76 488.04 411.65 488.04 405.71 484.46 405.71 484.46 389.71 482.39 389.71 482.39 409.21 480.94 409.21 480.94 412.28 482.58 416.3 486.77 416.3"/>
            <polygon class="cls-25" points="485.71 526.23 491.65 526 491.65 523.89 485.71 523.83 485.71 526.23"/>
            <rect class="cls-11" x="508.66" y="506.77" width="6.18" height="6.18" transform="translate(1023.5 1019.72) rotate(-180)"/>
            <rect class="cls-11" x="481.65" y="506.77" width="5.8" height="5.26" transform="translate(969.1 1018.8) rotate(-180)"/>
            <path class="cls-5" d="M504.68,541.07l3.71,4.39v31s7,.43,9-1.33c0-.06.12-41.35.12-41.35h-13Z"/>
            <polygon class="cls-11" points="513.82 576.51 517.49 575.21 517.49 533.83 513.82 533.83 513.82 576.51"/>
            <rect class="cls-17" x="509.71" y="559.31" width="5" height="4.02" transform="translate(1024.42 1122.65) rotate(-180)"/>
            <rect class="cls-17" x="509.67" y="564.49" width="5" height="4.02" transform="translate(1024.33 1133) rotate(-180)"/>
            <rect class="cls-17" x="509.67" y="569.56" width="5" height="4.02" transform="translate(1024.33 1143.14) rotate(-180)"/>
            <path class="cls-23" d="M517.49,575.21a16,16,0,0,1-12.81.06l-.18,4.67s7.27,2.74,12.86,0Z"/>
            <path class="cls-8" d="M515.42,580.62,517,583v2.73a13.45,13.45,0,0,1-10.59,0l-.05-3.15,1.4-1.77A17.16,17.16,0,0,0,515.42,580.62Z"/>
            <polygon class="cls-5" points="450.26 572.22 485.58 564.05 485.58 581.26 429.41 591.45 429.42 583.14 447.37 579 447.37 572.81 450.26 572.22"/>
            <polygon class="cls-3" points="480.5 582.08 483.38 581.55 483.38 569.21 480.5 569.85 480.5 582.08"/>
            <polygon class="cls-3" points="475.55 582.97 478.43 582.45 478.43 570.31 475.55 570.95 475.55 582.97"/>
            <polygon class="cls-3" points="470.6 583.87 473.48 583.35 473.48 571.41 470.6 572.05 470.6 583.87"/>
            <polygon class="cls-26" points="465.9 565.68 469 565.02 469 560.97 465.9 561.62 465.9 565.68"/>
            <polygon class="cls-27" points="462.81 566.35 465.9 565.69 465.9 561.64 462.81 562.29 462.81 566.35"/>
            <polygon class="cls-28" points="460.15 566.88 463.03 566.24 463.03 562.18 460.15 562.82 460.15 566.88"/>
            <polygon class="cls-29" points="457.4 567.48 460.15 566.88 460.15 562.7 457.4 563.3 457.4 567.48"/>
            <polygon class="cls-30" points="454.56 568 457.31 567.54 457.31 563.35 454.56 563.95 454.56 568"/>
            <line class="cls-15" x1="454.48" y1="563.93" x2="469" y2="561.03"/>
            <line class="cls-15" x1="465.9" y1="561.64" x2="465.9" y2="565.74"/>
            <line class="cls-15" x1="462.9" y1="562.22" x2="462.9" y2="566.31"/>
            <line class="cls-15" x1="460.15" y1="562.74" x2="460.15" y2="566.83"/>
            <line class="cls-15" x1="457.4" y1="563.32" x2="457.4" y2="567.41"/>
            <rect class="cls-31" x="380.38" y="580.64" width="1.71" height="8.95" transform="translate(762.47 1170.24) rotate(-180)"/>
            <polygon class="cls-32" points="405.14 582.96 406.85 584.19 405.98 632.01 407.37 634.49 407.37 649.52 403.66 650.94 403.66 583.01 405.14 582.96"/>
            <polygon class="cls-32" points="388.62 582.96 387.51 583.01 387.51 633.1 386.72 634.65 386.72 649.52 390.11 650.94 390.11 583.01 388.62 582.96"/>
            <polygon class="cls-33" points="401.43 651.23 403.66 651.03 403.66 583.01 401.43 583.01 401.43 651.23"/>
            <rect class="cls-34" x="391.26" y="583.01" width="10.42" height="68.22" transform="translate(792.94 1234.25) rotate(-180)"/>
            <polygon class="cls-33" points="389.68 650.72 391.86 651.45 391.86 583.01 389.68 583.01 389.68 650.72"/>
            <rect class="cls-26" x="393.73" y="590.15" width="6.84" height="2.24" transform="translate(794.31 1182.54) rotate(-180)"/>
            <rect class="cls-28" x="393.73" y="592.5" width="6.84" height="2.24" transform="translate(794.31 1187.24) rotate(-180)"/>
            <rect class="cls-32" x="393.73" y="594.96" width="6.84" height="2.69" transform="translate(794.31 1192.61) rotate(-180)"/>
            <rect class="cls-8" x="398.69" y="621.85" width="1.91" height="5.59" transform="translate(799.29 1249.29) rotate(-180)"/>
            <path class="cls-28" d="M396.88,615.86v2.65l-3.69,3.75v4.58l-1.64,0-.06-11.41S396.11,616,396.88,615.86Z"/>
            <polygon class="cls-14" points="407.34 644.8 407.37 649.52 406.17 650.14 406.01 645.32 407.34 644.8"/>
            <polygon class="cls-35" points="402.54 646.53 406.01 645.32 405.93 650.19 402.6 651.26 402.54 646.53"/>
            <polygon class="cls-36" points="397.46 647.09 402.54 646.53 402.6 651.26 400.03 651.73 397.47 651.88 397.46 647.09"/>
            <polygon class="cls-37" points="391.39 646.36 394.96 647.03 397.46 647.09 397.47 651.88 394.31 651.79 391.26 651.23 391.39 646.36"/>
            <polygon class="cls-35" points="388.25 645.32 388.31 650.18 391.26 651.23 391.39 646.36 388.25 645.32"/>
            <polygon class="cls-14" points="386.66 644.69 388.25 645.32 388.31 650.18 386.72 649.52 386.66 644.69"/>
            <polygon class="cls-38" points="380.33 615.83 383.59 616.85 387.51 616.85 387.51 597.65 386.72 597.65 386.72 592.36 380.33 592.36 380.33 615.83"/>
            <polygon class="cls-38" points="380.33 615.83 379 621.12 379 630.57 382.28 631.6 385.69 632.11 387.51 632.14 387.51 616.85 383.59 616.85 380.33 615.83"/>
            <polygon class="cls-26" points="384.22 592.36 380.38 595.2 380.33 592.36 384.22 592.36"/>
            <rect class="cls-39" x="398.69" y="621.85" width="1.91" height="5.59" transform="translate(799.29 1249.29) rotate(-180)"/>
            <rect class="cls-8" x="393.7" y="582.96" width="6.84" height="7.19" transform="translate(794.25 1173.11) rotate(-180)"/>
            <rect class="cls-8" x="393.7" y="597.65" width="6.84" height="6.84" transform="translate(794.25 1202.14) rotate(-180)"/>
            <line class="cls-15" x1="400.35" y1="583.01" x2="393.51" y2="583.01"/>
          </g>
          <path class="cls-5" d="M351.3,301.21l-2.23,6.1-.88,2.95-1,3.77-1,4.67-.84,5.43-.48,5.31-.18,4.48.05,8.25V346l-.54,8-.82,12.36L341.25,399l-6.17,87.84-.93,12.67v14.07l-.21,3.44-29,0v2.09h-2.67v10l-65.71-2.54v-2.65H236v-5h1v-6l-3.28-.61-1.12-.09V462.25h-.74V420.57l2.39-2.13V416.3h-2.39l1.45-4v-3.07h-1.45v-19.5h-2.07v16h-3.58v5.94l1.27,2.12v2.53h-2.14V418l2.95,2.6v41.68h-1.43v49.92l-4.25.71v6h1.53v5h-1.53V526l-3.69-.15v6.66h-9.17v-7.82h-1v-5h1v-6l-4.07-.59-.33,0V455.83h-.75V414.15L207,412v-2.13h-2.59l1.64-4v-3.08h-1.45V383.29h-2.06v16H199v5.93l1.27,2.12v2.54h-2.13v1.66l2.95,2.61v41.68h-1.44V513l-4.25.72v6h1.54v16.65l-2.11,2.4v39h2.11v2.23l1.94.68-1.6,2.34v2.73a14.24,14.24,0,0,0,10.6,0l0-3.15-1.4-1.77,3.28-.83,94.39,17.71v-4h3.56L308.3,632l-1.39,2.48v15a22.75,22.75,0,0,0,20.65,0V634.65l-.79-1.56v-1s5.71,0,8.51-1.57v-9.45l-1.35-5.25v-6.93l7.51,4.53H373l7-4.23.12-110.16-9.76-140.53-.84-12.68V332.38l-.14-3.41-.35-4-.87-5.91L367.13,314l-1.62-5.94-1.43-4.23L363,301.21Z"/>
          <polygon class="cls-33" points="347.49 516.09 351.31 515.93 351.35 519.29 350.16 527.59 347.51 527.59 347.49 516.09"/>
          <polygon class="cls-33" points="363.08 516.09 366.97 515.92 367.04 527.59 364.43 527.48 363.32 518.63 363.08 516.09"/>
          <polygon class="cls-34" points="347.35 503.1 347.49 516.09 351.31 515.93 351.33 519.29 355.6 529.06 358.83 529.08 363.24 519.29 363.08 516.09 366.97 515.92 366.97 503.1 347.35 503.1"/>
          <rect class="cls-40" x="348.51" y="508.22" width="3.29" height="6.45"/>
          <rect class="cls-40" x="362.64" y="508.22" width="3.29" height="6.45"/>
          <circle class="cls-40" cx="357.27" cy="511.45" r="6.28"/>
          <path class="cls-41" d="M363,514.25,361,513v-3.37l1.79-1.07a7.05,7.05,0,0,1,.18,5.69"/>
          <circle class="cls-15" cx="359.39" cy="509.61" r="0.53"/>
          <polygon class="cls-42" points="351.91 514.68 348.61 514.55 348.61 512.55 351.08 512.55 351.91 514.68"/>
          <polygon class="cls-42" points="362.69 514.61 365.99 514.49 365.99 512.49 363.51 512.49 362.69 514.61"/>
          <polygon class="cls-42" points="362.75 508.22 366.05 508.35 366.05 510.35 363.58 510.35 362.75 508.22"/>
          <polygon class="cls-42" points="351.91 508.29 348.61 508.41 348.61 510.41 351.08 510.41 351.91 508.29"/>
          <rect class="cls-15" x="348.51" y="510.53" width="2.41" height="2.03"/>
          <rect class="cls-15" x="363.55" y="510.53" width="2.41" height="2.03"/>
          <path class="cls-42" d="M357.23,517.73a6.28,6.28,0,0,1,0-12.56"/>
          <path class="cls-41" d="M355.79,515.2h3.38l1.07,1.79a7,7,0,0,1-5.7.17"/>
          <path class="cls-41" d="M360.12,505.83,359,507.61h-3.38l-1.07-1.79a7.21,7.21,0,0,1,5.58,0"/>
          <path class="cls-41" d="M351.68,508.68l1.78,1.13v3.37l-1.79,1.07a5.69,5.69,0,0,1,0-5.57"/>
          <line class="cls-15" x1="358.52" y1="511.23" x2="355.98" y2="511.23"/>
          <line class="cls-15" x1="352.77" y1="515.92" x2="354.3" y2="514.61"/>
          <rect class="cls-15" x="353.91" y="508.22" width="1.61" height="1.61"/>
          <polygon class="cls-43" points="354.18 311.11 360.14 311.11 360.14 329.53 354.17 329.44 354.18 311.11"/>
          <polygon class="cls-3" points="348.51 367.34 345.63 367.15 336.4 497.96 338.6 498.04 339.95 481.38 348.51 367.34"/>
          <path class="cls-39" d="M350,337.28l.1,27.11-4.42,2.76,1.84-21.32S347.09,340.9,350,337.28Z"/>
          <polygon class="cls-44" points="344.76 345.99 347.47 345.83 345.63 366.18 336.4 497.96 334.15 499.48 344.76 345.99"/>
          <path class="cls-45" d="M347.47,345.83s-.48-9.09,5.39-10.51c-.1.05,8.73,0,8.73,0s3,.76,4.35,4.85.92,5.63.92,5.63l2.71,0V340.6s-1.77-5.36-6.55-6.68c-.11.06-11.72,0-11.72,0a10.55,10.55,0,0,0-6.55,6.53c.06,0,0,5.54,0,5.54Z"/>
          <path class="cls-7" d="M351.3,333.92V301.21s-3.35,9.84-5.09,17.49c-2,9-1.46,21.75-1.46,21.75S346.68,335.31,351.3,333.92Z"/>
          <polygon class="cls-45" points="354.18 311.11 354.17 313.04 360.26 313.04 360.14 311.11 354.18 311.11"/>
          <path class="cls-5" d="M363,301.21v32.71s3.82.36,6.55,6.68C369.57,340.6,370.84,318.5,363,301.21Z"/>
          <polygon class="cls-45" points="354.26 319.28 354.19 321.78 360.14 321.78 360.13 319.01 354.26 319.28"/>
          <path class="cls-11" d="M361.59,335.35a5.54,5.54,0,0,1,2.8,1.93c-.11-.1-.15,27.05-.15,27.05l-2.65.06Z"/>
          <polygon class="cls-45" points="345.63 367.15 352.86 367.15 352.86 364.38 350.05 364.38 345.63 367.15"/>
          <polygon class="cls-5" points="366.87 345.83 369.57 345.87 374.48 421.01 380.17 499.08 377.97 498.04 368.04 360.63 366.87 345.83"/>
          <polygon class="cls-6" points="361.58 364.38 361.51 367.07 368.7 367.15 364.24 364.33 361.58 364.38"/>
          <path class="cls-39" d="M364.39,337.28a12.87,12.87,0,0,1,2.47,8.55l1.85,21.32-4.47-2.82Z"/>
          <polygon class="cls-3" points="365.87 367.15 368.7 367.15 377.97 498.04 375.51 498.04 365.87 367.15"/>
          <polygon class="cls-43" points="355.84 351.97 358.4 351.99 359.78 358.98 359.73 362.48 354.55 362.48 354.57 358.82 355.84 351.97"/>
          <path class="cls-17" d="M361.59,335.35v29l2.65-.06.15-27.05A5.83,5.83,0,0,0,361.59,335.35Z"/>
          <path class="cls-46" d="M350.05,364.39h2.81V335.32a7.74,7.74,0,0,0-2.91,2Z"/>
          <polygon class="cls-47" points="348.51 367.34 352.86 367.15 352.86 384.31 349.4 384.31 349.24 402.66 345.47 407.81 348.51 367.34"/>
          <polygon class="cls-5" points="361.51 367.07 361.58 384.42 364.93 384.42 365.11 402.69 368.86 407.44 365.87 367.15 361.51 367.07"/>
          <polygon class="cls-5" points="365.11 402.69 364.93 432.7 370.7 432.7 368.86 407.44 365.11 402.69"/>
          <polygon class="cls-47" points="345.47 407.81 343.61 432.6 349.17 432.7 349.24 402.66 345.47 407.81"/>
          <polygon class="cls-47" points="349.17 432.7 349.4 437.76 342.5 448.01 343.61 432.6 349.17 432.7"/>
          <polygon class="cls-5" points="364.93 432.7 364.93 437.61 371.82 448.01 370.7 432.7 364.93 432.7"/>
          <polygon class="cls-8" points="349.4 384.31 352.86 384.31 352.86 414.06 349.42 414.07 349.4 384.31"/>
          <polygon class="cls-8" points="349.42 414.07 352.86 414.06 352.91 427.86 357.07 432.48 349.17 432.7 349.42 414.07"/>
          <polygon class="cls-5" points="361.58 384.42 361.58 427.57 357.27 432.7 364.93 432.7 364.93 384.42 361.58 384.42"/>
          <polygon class="cls-12" points="349.4 437.76 339.86 483.85 342.5 448.01 349.4 437.76"/>
          <polygon class="cls-48" points="364.93 437.61 371.82 448.01 374.15 482.25 364.93 437.61"/>
          <polygon class="cls-14" points="349.4 437.76 357.07 437.76 357.07 440.3 351.4 440.36 350.05 445.34 347.47 480.5 349.4 482.25 357.21 482.25 357.07 483.85 350.05 483.85 350.05 494.2 357.21 494.2 357.07 495.82 350.14 495.82 348.9 498.71 357.07 498.61 357.07 503.1 345.21 503.1 339.63 486.23 339.74 484.05 349.4 437.76"/>
          <polygon class="cls-49" points="347.37 453.81 341.69 482.39 344.76 482.25 347.37 453.81"/>
          <polygon class="cls-49" points="351.4 440.36 350.05 445.34 347.47 480.5 349.4 482.25 365.04 482.25 367.04 480.59 364.28 444.95 362.94 440.3 351.4 440.36"/>
          <polygon class="cls-49" points="341.98 485.28 344.76 485.28 345.21 495.82 341.69 485.28 341.98 485.28"/>
          <polygon class="cls-50" points="357.07 437.76 357.07 440.3 362.94 440.3 364.28 444.95 367.04 480.59 365.04 482.25 357.01 482.25 357.01 483.85 364.35 483.85 364.28 494.2 356.9 494.2 356.9 495.89 364.28 495.82 365.58 498.61 357.07 498.61 357.07 503.1 369.26 503.1 374.71 487.27 374.58 483.45 364.93 437.61 357.07 437.76"/>
          <polygon class="cls-49" points="350.05 483.85 350.05 494.2 364.28 494.2 364.35 483.85 350.05 483.85"/>
          <polygon class="cls-49" points="350.14 495.82 348.9 498.71 365.58 498.61 364.28 495.82 350.14 495.82"/>
          <polygon class="cls-49" points="369.7 485.35 369.26 496.15 372.79 485.35 369.7 485.35"/>
          <polygon class="cls-49" points="366.96 453.81 369.77 482.39 372.64 482.39 366.96 453.81"/>
          <polygon class="cls-51" points="357.07 440.3 357.01 482.25 365.04 482.25 367.04 480.59 364.28 444.95 362.94 440.3 357.07 440.3"/>
          <polygon class="cls-51" points="357.07 483.85 357.21 494.2 364.28 494.2 364.35 483.85 357.07 483.85"/>
          <polygon class="cls-52" points="374.71 487.27 370.2 500.42 374.76 510.06 374.8 581.73 376.03 581.73 375.73 498.24 374.71 487.27"/>
          <polygon class="cls-11" points="377.97 498.04 380.17 499.08 380.18 513.58 380.38 516.74 375.88 516.99 375.88 498.04 377.97 498.04"/>
          <rect class="cls-47" x="349.4" y="384.42" width="3.45" height="1.25"/>
          <polygon class="cls-6" points="302.26 523.26 308.25 523.26 308.25 516.99 304.93 517.03 304.93 519.13 302.26 519.13 302.26 523.26"/>
          <polygon class="cls-7" points="329.32 523.26 333.94 523.26 333.94 516.99 325.61 517.03 329.32 517.03 329.32 519.13 329.32 523.26"/>
          <rect class="cls-8" x="308.25" y="516.99" width="4.36" height="6.27"/>
          <rect class="cls-8" x="325" y="516.99" width="4.36" height="6.27"/>
          <path class="cls-3" d="M302.26,523.26l0,4.27s9.87,1.73,17.19,1.38S334,527.37,334,527.37v-4.11Z"/>
          <polygon class="cls-51" points="366.96 453.81 372.64 482.39 369.77 482.39 366.96 453.81"/>
          <polygon class="cls-51" points="369.7 485.35 372.79 485.35 369.26 496.15 369.7 485.35"/>
          <polygon class="cls-51" points="357.07 495.82 357.07 498.61 365.58 498.61 364.28 495.82 357.07 495.82"/>
          <path class="cls-6" d="M302.28,527.53l-.1,9.54s6.8,1.84,10.42,1.54c0,0,0-9.88,0-9.88S303.43,528,302.28,527.53Z"/>
          <path class="cls-7" d="M316.74,529v9.91s11.42-.13,17.2-2c-.05,0,0-9.54,0-9.54A98.14,98.14,0,0,1,316.74,529Z"/>
          <polygon class="cls-9" points="316.74 538.86 316.74 538.86 316.77 565.64 328.79 565.55 328.97 554.89 333.93 554.73 333.94 536.91 328.08 537.98 324.4 538.47 322.41 538.61 316.74 538.86"/>
          <path class="cls-10" d="M316.74,568.82a93.46,93.46,0,0,0,17.19-2c0,.14,0,9.18,0,9.18a49,49,0,0,1-17.25,2.81C316.58,578.78,316.74,568.82,316.74,568.82Z"/>
          <polygon class="cls-9" points="307.96 571.52 310.93 571.6 310.85 576 307.89 576.08 307.96 571.52"/>
          <path class="cls-10" d="M302.27,566.83a34.26,34.26,0,0,0,10.32,1.88s0,9.83,0,9.83-8.14-1.1-10.18-2.46C302.42,576.23,302.27,566.83,302.27,566.83Z"/>
          <polygon class="cls-11" points="307.96 571.52 307.89 576.08 310.85 576 310.93 571.6 307.96 571.52"/>
          <rect class="cls-8" x="302.27" y="547.32" width="2.74" height="16.61"/>
          <polygon class="cls-8" points="308.25 528.36 308.25 538.33 312.6 538.61 312.59 528.73 308.25 528.36"/>
          <path class="cls-8" d="M316.74,529a81.29,81.29,0,0,0,12.61-.82c.11,0,0,9.71,0,9.71l-6.94.77-5.67.25Z"/>
          <polygon class="cls-7" points="329.35 537.84 328.97 554.89 333.93 554.73 333.94 536.91 329.35 537.84"/>
          <polygon class="cls-12" points="329.13 567.73 329.13 577.45 333.95 576.01 333.93 566.83 329.13 567.73"/>
          <polygon class="cls-12" points="307.73 568.23 307.89 577.75 302.41 576.08 302.27 566.83 307.73 568.23"/>
          <polygon class="cls-6" points="306.64 538.07 306.64 568.02 302.27 566.83 302.18 537.07 306.64 538.07"/>
          <polygon class="cls-8" points="312.6 538.61 312.59 568.71 306.64 568.02 306.64 538.07 312.6 538.61"/>
          <polygon class="cls-13" points="312.59 528.73 312.62 564.72 322.41 565.64 322.41 528.95 312.59 528.73"/>
          <rect class="cls-10" x="302.27" y="547.32" width="2.74" height="16.61"/>
          <path class="cls-14" d="M309.14,578v5l17.63,0v-5a50.37,50.37,0,0,1-10.07.83C312.59,578.54,309.14,578,309.14,578Z"/>
          <polygon class="cls-53" points="334.15 499.48 334.15 513.55 333.94 516.99 338.75 516.99 338.6 498.04 336.4 497.96 334.15 499.48"/>
          <polygon class="cls-53" points="338.75 581.73 334.15 581.73 333.94 516.99 338.75 516.99 338.75 581.73"/>
          <rect class="cls-11" x="375.88" y="516.99" width="4.59" height="64.74"/>
          <polygon class="cls-12" points="339.63 486.23 344.27 500.26 339.86 509.53 339.68 576.01 339.68 581.73 338.45 581.73 338.75 574.82 338.6 498.04 339.63 486.23"/>
          <line class="cls-15" x1="336.4" y1="497.96" x2="334.15" y2="499.48"/>
          <line class="cls-15" x1="308.25" y1="528.36" x2="308.25" y2="538.33"/>
          <polygon class="cls-3" points="225.87 532.51 225.97 563.3 264.02 572.09 264.09 569.03 245.26 564.94 245.26 532.51 225.87 532.51"/>
          <polygon class="cls-11" points="245.38 539.66 259.8 539.66 259.8 568.02 245.26 565.08 245.38 539.66"/>
          <polygon class="cls-16" points="284.89 543.63 274.74 543.63 274.74 548.84 266.91 555.62 266.91 578.87 284.86 583.01 284.89 578.54 275.7 576.75 275.9 553.86 284.86 550.17 284.89 543.63"/>
          <polygon class="cls-5" points="284.89 532.51 284.89 557.12 289.94 557.12 298.02 542.13 302.18 542.09 302.18 532.51 284.89 532.51"/>
          <rect class="cls-10" x="279.98" y="556.45" width="4.91" height="17.32"/>
          <polygon class="cls-17" points="284.89 539.89 245.26 539.66 245.26 532.51 284.89 532.51 284.89 539.89"/>
          <rect class="cls-14" x="284.89" y="572.14" width="17.29" height="1.52"/>
          <rect class="cls-6" x="284.94" y="573.65" width="2.55" height="19.25"/>
          <rect class="cls-6" x="291.25" y="573.65" width="2.55" height="19.25"/>
          <rect class="cls-6" x="297.19" y="573.65" width="2.55" height="19.25"/>
          <rect class="cls-10" x="217.23" y="576.01" width="3.32" height="2.57"/>
          <polygon class="cls-18" points="209.78 532.51 225.87 532.51 225.97 563.3 228.7 563.92 228.7 581.13 209.6 577.71 209.6 572.68 223.59 566.83 223.71 544.2 209.82 538.07 209.78 532.51"/>
          <rect class="cls-11" x="217.3" y="576.11" width="3.13" height="2.41"/>
          <polygon class="cls-12" points="218.95 532.51 218.95 525.85 302.26 529.08 302.18 532.51 218.95 532.51"/>
          <polygon class="cls-18" points="209.78 544.2 216.69 547.11 216.69 565.11 209.78 567.63 209.78 544.2"/>
          <rect class="cls-19" x="196.79" y="519.7" width="0.74" height="5"/>
          <rect class="cls-19" x="208.14" y="519.7" width="0.6" height="5"/>
          <rect class="cls-20" x="197.53" y="519.7" width="1.68" height="5"/>
          <rect class="cls-20" x="206.69" y="519.7" width="1.45" height="5"/>
          <rect class="cls-21" x="199.22" y="519.7" width="2.1" height="5"/>
          <rect class="cls-22" x="201.36" y="519.7" width="2.62" height="5"/>
          <rect class="cls-21" x="204.07" y="519.7" width="2.62" height="5"/>
          <rect class="cls-5" x="199.44" y="458.8" width="6.27" height="54.29"/>
          <path class="cls-17" d="M195.38,513.67a33.69,33.69,0,0,1,14.4,0v6l-14.4,0Z"/>
          <polygon class="cls-11" points="197.54 519.66 195.38 519.66 195.38 513.63 197.54 513.28 197.54 519.66"/>
          <polygon class="cls-11" points="207.74 519.66 209.77 519.66 209.77 513.63 207.74 513.28 207.74 519.66"/>
          <rect class="cls-17" x="196.92" y="524.7" width="12.68" height="4.21"/>
          <rect class="cls-23" x="199.63" y="455.73" width="5.48" height="3.09"/>
          <rect class="cls-24" x="201.31" y="414.15" width="3.32" height="41.58"/>
          <polygon class="cls-23" points="198.12 409.88 198.12 411.54 201.31 414.15 204.63 414.15 207.03 412.01 207.03 409.88 198.12 409.88"/>
          <polygon class="cls-22" points="200.25 409.88 200.25 407.34 198.98 405.22 198.98 399.29 202.57 399.29 202.57 383.29 204.63 383.29 204.63 402.78 206.08 402.78 206.08 405.86 204.44 409.88 200.25 409.88"/>
          <rect class="cls-23" x="196.79" y="528.91" width="13" height="4.93"/>
          <polygon class="cls-5" points="245.26 539.66 259.8 539.72 259.8 568.02 264.09 569.03 264.02 572.09 266.91 572.68 266.91 555.62 274.74 548.84 274.74 543.63 284.89 543.63 284.89 532.51 245.26 532.51 245.26 539.66"/>
          <polygon class="cls-54" points="344.27 500.26 345.21 503.1 342.31 509.9 342.31 527.3 339.86 527.3 339.86 509.53 344.27 500.26"/>
          <rect class="cls-54" x="339.86" y="527.3" width="3.81" height="54.43"/>
          <polygon class="cls-8" points="345.21 503.1 342.31 509.9 342.31 527.3 343.67 527.3 343.76 509.9 345.21 503.1"/>
          <rect class="cls-55" x="343.77" y="509.84" width="3.67" height="73.73"/>
          <polygon class="cls-56" points="370.65 583.57 366.99 583.57 366.99 503.1 369.26 503.1 370.65 509.84 370.65 583.57"/>
          <polygon class="cls-17" points="369.26 503.1 372.17 509.92 372.03 527.3 370.65 527.3 370.72 581.73 374.8 581.73 374.76 510.06 370.2 500.42 369.26 503.1"/>
          <polygon class="cls-57" points="369.26 503.1 372.17 509.92 372.03 527.3 370.65 527.3 370.65 509.84 369.26 503.1"/>
          <polygon class="cls-32" points="351.35 519.29 355.62 528.87 355 532.51 350.16 527.59 351.35 519.29"/>
          <polygon class="cls-33" points="355.62 529.06 358.86 529.08 359.48 532.51 355 532.51 355.62 529.06"/>
          <polygon class="cls-34" points="358.86 529.08 363.26 519.29 364.43 527.48 359.48 532.51 358.86 529.08"/>
          <polygon class="cls-54" points="343.67 581.73 343.67 589.1 342.04 589.08 341.98 606.3 341.98 609.24 341.4 612.23 338.6 610.43 338.45 581.73 343.67 581.73"/>
          <polygon class="cls-12" points="336.83 581.73 336.83 592.4 333.95 592.4 333.9 607.68 338.6 610.43 338.45 581.73 336.83 581.73"/>
          <line class="cls-15" x1="377.97" y1="498.04" x2="380.17" y2="499.08"/>
          <polygon class="cls-55" points="343.77 583.57 343.67 589.1 342.04 589.08 341.98 606.3 341.98 609.24 341.4 612.23 347.92 612.17 347.44 609.24 347.44 583.57 343.77 583.57"/>
          <polygon class="cls-8" points="196.92 536.33 194.81 538.73 194.81 577.71 196.92 577.71 196.92 536.33"/>
          <rect class="cls-17" x="338.45" y="581.73" width="1.23" height="1.23"/>
          <rect class="cls-17" x="338.45" y="582.96" width="1.23" height="1.23"/>
          <rect class="cls-17" x="338.45" y="584.19" width="1.23" height="1.23"/>
          <rect class="cls-17" x="338.45" y="585.41" width="1.23" height="1.23"/>
          <rect class="cls-17" x="338.45" y="586.64" width="1.23" height="1.23"/>
          <rect class="cls-17" x="338.45" y="587.87" width="1.23" height="1.23"/>
          <rect class="cls-12" x="347.51" y="521.16" width="1.26" height="4.52"/>
          <rect class="cls-12" x="365.75" y="521.16" width="1.26" height="4.52"/>
          <polygon class="cls-17" points="370.72 581.73 370.72 589.1 372.33 589.17 372.5 608.53 373.21 612.17 376.02 610.3 376.03 589.1 374.8 589.1 374.8 581.73 370.72 581.73"/>
          <rect class="cls-11" x="196.92" y="524.7" width="4.4" height="4.22"/>
          <rect class="cls-19" x="224.05" y="518.83" width="0.74" height="5"/>
          <rect class="cls-19" x="235.4" y="518.83" width="0.6" height="5"/>
          <rect class="cls-20" x="224.79" y="518.83" width="1.68" height="5"/>
          <rect class="cls-20" x="233.94" y="518.83" width="1.45" height="5"/>
          <rect class="cls-21" x="226.47" y="518.83" width="2.1" height="5"/>
          <rect class="cls-22" x="228.61" y="518.83" width="2.62" height="5"/>
          <rect class="cls-21" x="231.33" y="518.83" width="2.62" height="5"/>
          <rect class="cls-5" x="226.7" y="465.22" width="6.27" height="47"/>
          <path class="cls-17" d="M222.64,512.81a33.65,33.65,0,0,1,14.39,0v6l-14.39,0Z"/>
          <polygon class="cls-11" points="224.8 518.8 222.64 518.8 222.64 512.77 224.8 512.41 224.8 518.8"/>
          <polygon class="cls-11" points="235 518.8 237.03 518.8 237.03 512.77 235 512.41 235 518.8"/>
          <polygon class="cls-11" points="236.55 526.53 224.17 525.85 224.17 523.83 236.55 523.83 236.55 526.53"/>
          <rect class="cls-23" x="226.89" y="462.25" width="5.48" height="3.09"/>
          <rect class="cls-15" x="228.32" y="420.62" width="3.57" height="41.58"/>
          <polygon class="cls-23" points="225.37 416.3 225.37 417.97 228.57 420.57 231.89 420.57 234.28 418.44 234.28 416.3 225.37 416.3"/>
          <polygon class="cls-22" points="227.51 416.3 227.51 413.76 226.24 411.65 226.24 405.71 229.83 405.71 229.83 389.71 231.89 389.71 231.89 409.21 233.34 409.21 233.34 412.28 231.7 416.3 227.51 416.3"/>
          <polygon class="cls-25" points="228.57 526.23 222.63 526 222.63 523.89 228.57 523.83 228.57 526.23"/>
          <rect class="cls-11" x="199.44" y="506.77" width="6.18" height="6.18"/>
          <rect class="cls-11" x="226.83" y="506.77" width="5.8" height="5.26"/>
          <path class="cls-5" d="M209.6,541.07l-3.71,4.39v31s-7,.43-9-1.33c0-.06-.12-41.35-.12-41.35h13Z"/>
          <polygon class="cls-11" points="200.47 576.51 196.79 575.21 196.79 533.83 200.47 533.83 200.47 576.51"/>
          <rect class="cls-17" x="199.57" y="559.31" width="5" height="4.02"/>
          <rect class="cls-17" x="199.62" y="564.49" width="5" height="4.02"/>
          <rect class="cls-17" x="199.62" y="569.56" width="5" height="4.02"/>
          <path class="cls-23" d="M196.79,575.21a16,16,0,0,0,12.81.06l.18,4.67s-7.26,2.74-12.86,0Z"/>
          <path class="cls-8" d="M198.86,580.62l-1.6,2.34v2.73a13.47,13.47,0,0,0,10.6,0l0-3.15-1.4-1.77A17.14,17.14,0,0,1,198.86,580.62Z"/>
          <polygon class="cls-5" points="264.02 572.22 228.7 564.05 228.7 581.26 284.87 591.45 284.86 583.14 266.91 579 266.91 572.81 264.02 572.22"/>
          <polygon class="cls-3" points="233.78 582.08 230.91 581.55 230.91 569.21 233.78 569.85 233.78 582.08"/>
          <polygon class="cls-3" points="238.73 582.97 235.86 582.45 235.86 570.31 238.73 570.95 238.73 582.97"/>
          <polygon class="cls-3" points="243.68 583.87 240.81 583.35 240.81 571.41 243.68 572.05 243.68 583.87"/>
          <polygon class="cls-18" points="333.9 607.68 341.4 612.23 357.27 612.27 357.27 613.47 341.44 613.47 333.93 608.94 333.9 607.68"/>
          <rect class="cls-18" x="355.24" y="532.98" width="1.48" height="2.31"/>
          <rect class="cls-18" x="357.78" y="532.98" width="1.48" height="2.31"/>
          <rect class="cls-39" x="351.7" y="576.01" width="1.12" height="5.72"/>
          <rect class="cls-39" x="361.65" y="576.01" width="1.12" height="5.72"/>
          <rect class="cls-12" x="350.59" y="582.7" width="2.23" height="2.4"/>
          <rect class="cls-12" x="361.66" y="582.7" width="2.23" height="2.4"/>
          <rect class="cls-39" x="350.7" y="576.01" width="0.56" height="5.72"/>
          <rect class="cls-39" x="363.32" y="576.01" width="0.56" height="5.72"/>
          <polygon class="cls-26" points="248.38 565.68 245.28 565.02 245.28 560.97 248.38 561.62 248.38 565.68"/>
          <polygon class="cls-27" points="251.47 566.35 248.38 565.69 248.38 561.64 251.47 562.29 251.47 566.35"/>
          <polygon class="cls-28" points="254.13 566.88 251.25 566.24 251.25 562.18 254.13 562.82 254.13 566.88"/>
          <polygon class="cls-29" points="256.88 567.48 254.13 566.88 254.13 562.7 256.88 563.3 256.88 567.48"/>
          <polygon class="cls-30" points="259.72 568 256.97 567.54 256.97 563.35 259.72 563.95 259.72 568"/>
          <line class="cls-15" x1="259.8" y1="563.93" x2="245.28" y2="561.03"/>
          <line class="cls-15" x1="248.38" y1="561.64" x2="248.38" y2="565.74"/>
          <line class="cls-15" x1="251.38" y1="562.22" x2="251.38" y2="566.31"/>
          <line class="cls-15" x1="254.13" y1="562.74" x2="254.13" y2="566.83"/>
          <line class="cls-15" x1="256.88" y1="563.32" x2="256.88" y2="567.41"/>
          <rect class="cls-39" x="351.82" y="558.81" width="1" height="6.74"/>
          <rect class="cls-39" x="361.71" y="558.81" width="1" height="6.74"/>
          <rect class="cls-39" x="350.61" y="558.81" width="0.65" height="6.74"/>
          <rect class="cls-39" x="363.23" y="558.81" width="0.65" height="6.74"/>
          <circle class="cls-58" cx="357.23" cy="551.26" r="2.09"/>
          <rect class="cls-58" x="350.61" y="545.4" width="1.09" height="3.49"/>
          <rect class="cls-58" x="362.72" y="545.4" width="1.09" height="3.49"/>
          <polygon class="cls-18" points="350.07 549.42 350.07 552.69 352.27 552.55 352.27 549.42 350.07 549.42"/>
          <polygon class="cls-59" points="350.07 552.69 351.16 556.85 354.16 554.89 352.27 552.55 350.07 552.69"/>
          <polygon class="cls-60" points="354.16 554.89 351.16 556.85 353.64 558.81 355.62 558.81 355.62 556.45 354.16 554.89"/>
          <rect class="cls-47" x="355.62" y="556.45" width="3.25" height="2.36"/>
          <polygon class="cls-61" points="362.21 552.61 360.21 554.89 363.23 556.85 364.41 552.69 362.21 552.61"/>
          <polygon class="cls-62" points="360.21 554.89 358.87 556.45 358.87 558.8 360.83 558.81 363.23 556.85 360.21 554.89"/>
          <rect class="cls-18" x="362.21" y="549.42" width="2.07" height="3.14"/>
          <polygon class="cls-18" points="352.26 535.8 352.27 549.42 357.02 541.47 357.27 535.8 352.26 535.8"/>
          <polygon class="cls-18" points="362.22 535.8 357.27 535.8 357.27 541.15 362.21 549.42 362.22 535.8"/>
          <rect class="cls-18" x="353.64" y="558.81" width="7.19" height="7.5"/>
          <polygon class="cls-63" points="351.76 566.42 351.7 575.24 353.64 575.24 353.64 581.73 360.83 581.73 360.83 575.24 362.77 575.2 362.71 566.31 351.76 566.42"/>
          <polygon class="cls-18" points="350.12 585.7 350.12 606.3 364.42 606.3 364.43 585.7 360.01 585.7 359.48 584.52 358.29 583.57 357.06 583.38 355.86 583.73 355 584.52 354.47 585.66 350.12 585.7"/>
          <polygon class="cls-64" points="358.03 568.33 358.03 579.95 359.16 579.91 359.16 568.33 358.03 568.33"/>
          <circle class="cls-65" cx="353.39" cy="568.33" r="0.7"/>
          <circle class="cls-65" cx="361.09" cy="568.33" r="0.7"/>
          <rect class="cls-39" x="352.77" y="569.67" width="1.19" height="1.19"/>
          <rect class="cls-39" x="360.49" y="571.52" width="1.19" height="1.19"/>
          <polygon class="cls-64" points="359.16 568.33 357.3 566.36 358.03 568.33 359.16 568.33"/>
          <rect class="cls-66" x="350.59" y="586.26" width="2.09" height="9.44"/>
          <rect class="cls-66" x="361.73" y="586.26" width="2.09" height="9.44"/>
          <polygon class="cls-67" points="357.27 612.27 357.27 613.47 373.04 613.47 380.4 609.03 380.4 607.75 372.99 612.22 357.27 612.27"/>
          <polyline class="cls-15" points="372.5 606.3 372.5 608.53 373.08 612.07"/>
          <rect class="cls-31" x="332.19" y="580.64" width="1.71" height="8.95"/>
          <rect class="cls-31" x="380.41" y="580.64" width="1.71" height="8.95"/>
          <polygon class="cls-64" points="358.03 579.95 358.02 581.6 359.16 579.91 358.03 579.95"/>
          <rect class="cls-18" x="356.45" y="568.33" width="1.59" height="13.4"/>
          <polygon class="cls-18" points="357.3 566.36 356.45 568.33 358.03 568.33 357.3 566.36"/>
          <polygon class="cls-68" points="356.98 566.58 355.28 568.33 355.28 580.03 356.45 581.73 356.45 568.33 356.98 566.58"/>
          <rect class="cls-31" x="360.22" y="533.66" width="0.99" height="0.99"/>
          <rect class="cls-15" x="360.22" y="533.66" width="0.99" height="0.99"/>
          <polygon class="cls-69" points="372.17 509.92 374.76 510.06 370.2 500.42 369.26 503.1 372.17 509.92"/>
          <line class="cls-15" x1="367.04" y1="509.88" x2="374.76" y2="509.88"/>
          <line class="cls-15" x1="367.04" y1="518.42" x2="374.76" y2="518.42"/>
          <polygon class="cls-32" points="309.14 582.96 307.43 584.19 308.3 632.01 306.91 634.49 306.91 649.52 310.63 650.94 310.63 583.01 309.14 582.96"/>
          <polygon class="cls-32" points="325.66 582.96 326.77 583.01 326.77 633.1 327.56 634.65 327.56 649.52 324.18 650.94 324.18 583.01 325.66 582.96"/>
          <polygon class="cls-33" points="312.86 651.23 310.63 651.03 310.63 583.01 312.86 583.01 312.86 651.23"/>
          <rect class="cls-34" x="312.6" y="583.01" width="10.42" height="68.22"/>
          <polygon class="cls-33" points="324.6 650.72 322.42 651.45 322.42 583.01 324.6 583.01 324.6 650.72"/>
          <rect class="cls-26" x="313.71" y="590.15" width="6.84" height="2.24"/>
          <rect class="cls-28" x="313.71" y="592.5" width="6.84" height="2.24"/>
          <rect class="cls-32" x="313.71" y="594.96" width="6.84" height="2.69"/>
          <rect class="cls-8" x="313.68" y="621.85" width="1.91" height="5.59"/>
          <path class="cls-28" d="M317.4,615.86v2.65l3.69,3.75v4.58l1.64,0,.06-11.41S318.18,616,317.4,615.86Z"/>
          <polygon class="cls-14" points="306.94 644.8 306.91 649.52 308.12 650.14 308.27 645.32 306.94 644.8"/>
          <polygon class="cls-35" points="311.74 646.53 308.27 645.32 308.35 650.19 311.69 651.26 311.74 646.53"/>
          <polygon class="cls-36" points="316.82 647.09 311.74 646.53 311.69 651.26 314.25 651.73 316.81 651.88 316.82 647.09"/>
          <polygon class="cls-37" points="322.89 646.36 319.32 647.03 316.82 647.09 316.81 651.88 319.97 651.79 323.02 651.23 322.89 646.36"/>
          <polygon class="cls-35" points="326.03 645.32 325.97 650.18 323.02 651.23 322.89 646.36 326.03 645.32"/>
          <polygon class="cls-14" points="327.62 644.69 326.03 645.32 325.97 650.18 327.56 649.52 327.62 644.69"/>
          <polygon class="cls-38" points="333.95 615.83 330.69 616.85 326.77 616.85 326.77 597.65 327.56 597.65 327.56 592.36 333.95 592.36 333.95 615.83"/>
          <polygon class="cls-38" points="333.95 615.83 335.28 621.12 335.28 630.57 332 631.6 328.59 632.11 326.77 632.14 326.77 616.85 330.69 616.85 333.95 615.83"/>
          <polygon class="cls-26" points="330.06 592.36 333.9 595.2 333.95 592.36 330.06 592.36"/>
          <rect class="cls-39" x="313.68" y="621.85" width="1.91" height="5.59"/>
          <rect class="cls-8" x="313.74" y="582.96" width="6.84" height="7.19"/>
          <rect class="cls-8" x="313.74" y="597.65" width="6.84" height="6.84"/>
          <line class="cls-15" x1="313.93" y1="583.01" x2="320.77" y2="583.01"/>
          <polygon class="cls-33" points="350.12 609.92 350.05 607.07 364.43 607.07 364.43 609.92 363.06 608.5 361.86 607.68 358.29 607.22 357.02 607.16 354.55 607.34 352.79 607.52 351.68 608.18 350.12 609.92"/>
          <rect class="cls-31" x="509.83" y="559.37" width="4.87" height="3.89"/>
          <rect class="cls-15" x="354.18" y="311.12" width="5.96" height="18.32"/>
          <line class="cls-15" x1="354.18" y1="313.04" x2="360.15" y2="313.04"/>
          <line class="cls-15" x1="354.18" y1="319.11" x2="360.15" y2="319.11"/>
          <line class="cls-15" x1="354.18" y1="321.67" x2="360.15" y2="321.67"/>
          <polygon class="cls-15" points="352.95 335.3 352.86 364.38 361.5 364.38 361.58 335.3 352.95 335.3"/>
          <polyline class="cls-15" points="347.47 345.87 345.63 367.15 352.86 367.15"/>
          <polyline class="cls-15" points="350.05 337.17 350.05 364.38 345.63 367.15 336.36 498.04 338.75 498.04 348.46 367.15"/>
          <polyline class="cls-15" points="357.16 351.97 355.89 351.97 354.55 359.02 354.55 362.55 359.78 362.55 359.78 359.02 358.44 351.97 357.17 351.97"/>
          <polyline class="cls-15" points="361.5 364.38 361.5 384.42 352.86 384.42 352.86 364.38 350.05 364.38"/>
          <line class="cls-15" x1="352.86" y1="388.77" x2="349.4" y2="388.77"/>
          <polyline class="cls-15" points="361.5 384.42 361.5 427.73 357.27 432.7 352.86 427.86 352.86 384.42"/>
          <line class="cls-15" x1="345.2" y1="411.42" x2="349.4" y2="411.42"/>
          <line class="cls-15" x1="349.4" y1="385.67" x2="349.4" y2="432.7"/>
          <line class="cls-15" x1="345.47" y1="407.69" x2="349.4" y2="402.45"/>
          <rect class="cls-15" x="349.4" y="384.42" width="3.46" height="1.25"/>
          <polyline class="cls-15" points="343.63 432.7 349.4 432.7 349.4 437.61 342.5 448.01"/>
          <polyline class="cls-15" points="339.86 483.85 349.4 437.61 349.4 432.7 357.27 432.7"/>
          <polyline class="cls-15" points="349.4 437.61 357.18 437.61 357.18 440.36 351.5 440.36 350.05 444.95 347.44 480.48 349.4 482.25 357.27 482.25"/>
          <polygon class="cls-15" points="347.44 453.45 344.72 482.25 341.69 482.25 347.44 453.45"/>
          <polygon class="cls-15" points="341.69 485.28 344.76 485.28 345.21 496.15 341.69 485.28"/>
          <polyline class="cls-15" points="357.18 494.2 350.05 494.2 350.05 483.85 357.32 483.85"/>
          <polyline class="cls-15" points="339.68 486.23 345.21 503.1 357.27 503.1"/>
          <circle class="cls-15" cx="357.23" cy="511.45" r="6.32"/>
          <polyline class="cls-15" points="347.44 503.1 347.44 515.92 351.38 515.92 351.24 519.13 355.62 529.08 357.76 529.08"/>
          <line class="cls-70" x1="350.05" y1="522.24" x2="350.05" y2="557.12"/>
          <polyline class="cls-15" points="345.95 483.85 348.56 483.85 348.56 494.2 345.21 503.1 357.27 503.1"/>
          <polyline class="cls-15" points="369.57 345.87 376.21 446.4 380.18 499.12 380.18 513.55"/>
          <polyline class="cls-15" points="366.87 345.87 368.7 367.15 361.47 367.15"/>
          <polyline class="cls-15" points="365.87 367.15 375.58 498.04 377.97 498.04 368.7 367.15 364.28 364.38 364.28 337.17"/>
          <line class="cls-15" x1="361.47" y1="388.77" x2="364.93" y2="388.77"/>
          <line class="cls-15" x1="369.13" y1="411.42" x2="364.93" y2="411.42"/>
          <line class="cls-15" x1="364.93" y1="385.67" x2="364.93" y2="432.7"/>
          <line class="cls-15" x1="368.86" y1="407.69" x2="364.93" y2="402.45"/>
          <rect class="cls-15" x="361.47" y="384.42" width="3.46" height="1.25" transform="translate(726.4 770.1) rotate(-180)"/>
          <polyline class="cls-15" points="370.7 432.7 364.93 432.7 364.93 437.61 371.83 448.01"/>
          <polyline class="cls-15" points="374.48 483.85 364.93 437.61 364.93 432.7 357.07 432.7"/>
          <polyline class="cls-15" points="364.93 437.61 357.15 437.61 357.15 440.36 362.83 440.36 364.28 444.95 366.89 480.48 364.93 482.25 357.07 482.25"/>
          <polygon class="cls-15" points="366.89 453.45 369.61 482.25 372.64 482.25 366.89 453.45"/>
          <polyline class="cls-15" points="357.15 494.2 364.28 494.2 364.28 483.85 357.01 483.85"/>
          <line class="cls-70" x1="364.28" y1="522.24" x2="364.28" y2="557.12"/>
          <polyline class="cls-15" points="351.3 301.21 351.3 333.92 363.03 333.92 363.03 301.21"/>
          <path class="cls-15" d="M351.3,333.92s-4.54,1.06-6.54,6.73"/>
          <path class="cls-15" d="M363,333.92s4.54,1.06,6.55,6.73"/>
          <path class="cls-15" d="M353,335.3s-4.88.85-5.48,9.15v1.42h-2.71l0-10.17a89.1,89.1,0,0,1,6.52-34.49h6"/>
          <path class="cls-15" d="M361.38,335.3s4.88.85,5.48,9.15v1.42h2.71l0-10.17A89.1,89.1,0,0,0,363,301.21h-6"/>
          <line class="cls-15" x1="357.07" y1="364.39" x2="364.28" y2="364.39"/>
          <line class="cls-15" x1="349.4" y1="414.06" x2="352.86" y2="414.06"/>
          <line class="cls-15" x1="361.47" y1="414.06" x2="364.93" y2="414.06"/>
          <polyline class="cls-15" points="357.24 495.82 350.05 495.82 348.9 498.61 357.32 498.61"/>
          <polyline class="cls-15" points="339.68 527.34 350.05 527.48 350.05 606.3"/>
          <polyline class="cls-15" points="351.8 508.22 348.47 508.22 348.47 514.68 351.8 514.68"/>
          <polyline class="cls-15" points="344.28 500.26 339.68 509.9 339.68 581.73"/>
          <polyline class="cls-15" points="347.44 515.92 347.44 525.69 348.76 525.69 348.76 521.11 347.44 521.11"/>
          <line class="cls-15" x1="339.68" y1="509.9" x2="347.44" y2="509.9"/>
          <line class="cls-15" x1="339.68" y1="518.42" x2="347.44" y2="518.42"/>
          <line class="cls-15" x1="347.44" y1="519.84" x2="347.44" y2="606.3"/>
          <polyline class="cls-15" points="342.31 509.9 342.31 518.42 342.31 527.37"/>
          <polyline class="cls-15" points="357.24 532.51 355 532.51 350.05 527.48 351.24 519.13"/>
          <polyline class="cls-15" points="350.05 535.8 357.24 535.8 357.24 541.12 352.26 549.38 352.26 552.6 355.62 556.45 357.24 556.45"/>
          <polyline class="cls-15" points="352.26 552.61 350.05 552.61 350.05 549.38 352.26 549.38 352.26 535.8"/>
          <polyline class="cls-15" points="357.24 558.8 353.64 558.8 353.64 566.31 351.7 566.31 351.7 575.22 353.64 575.22 353.64 581.73 357.24 581.73"/>
          <polyline class="cls-15" points="354.27 554.89 351.16 556.85 353.64 558.8 355.62 558.8 355.62 556.45"/>
          <path class="cls-15" d="M350.05,585.66h4.42a2.92,2.92,0,0,1,2.76-2.28"/>
          <circle class="cls-15" cx="357.23" cy="551.26" r="2.08"/>
          <line class="cls-15" x1="352.27" y1="536.91" x2="350.05" y2="536.91"/>
          <line class="cls-15" x1="352.27" y1="538.05" x2="350.05" y2="538.05"/>
          <line class="cls-15" x1="352.27" y1="539.19" x2="350.05" y2="539.19"/>
          <line class="cls-15" x1="352.27" y1="540.33" x2="350.05" y2="540.33"/>
          <line class="cls-15" x1="352.27" y1="541.47" x2="350.05" y2="541.47"/>
          <line class="cls-15" x1="352.27" y1="542.61" x2="350.05" y2="542.61"/>
          <line class="cls-15" x1="352.27" y1="543.63" x2="350.05" y2="543.63"/>
          <line class="cls-15" x1="352.27" y1="544.77" x2="350.05" y2="544.77"/>
          <rect class="cls-15" x="350.61" y="545.46" width="1.09" height="3.38"/>
          <rect class="cls-15" x="355.24" y="533.1" width="1.44" height="2.19"/>
          <line class="cls-15" x1="355.62" y1="529.08" x2="354.99" y2="532.51"/>
          <circle class="cls-15" cx="353.39" cy="568.33" r="0.7"/>
          <line class="cls-15" x1="351.16" y1="556.85" x2="350.05" y2="552.61"/>
          <rect class="cls-15" x="351.7" y="558.8" width="1.14" height="6.74"/>
          <rect class="cls-15" x="351.7" y="576.01" width="1.14" height="5.72"/>
          <rect class="cls-15" x="352.82" y="569.66" width="1.14" height="1.14"/>
          <rect class="cls-15" x="352.82" y="571.52" width="1.14" height="1.14"/>
          <rect class="cls-15" x="350.59" y="558.8" width="0.67" height="6.74"/>
          <rect class="cls-15" x="350.59" y="576.01" width="0.67" height="5.72"/>
          <line class="cls-15" x1="353.64" y1="569.66" x2="351.7" y2="569.66"/>
          <line class="cls-15" x1="353.64" y1="571.52" x2="351.7" y2="571.52"/>
          <polyline class="cls-15" points="352.27 566.31 357.24 566.31 355.28 568.33 355.28 579.95 356.45 581.73 356.45 580.53 356.45 568.33 357.24 566.31"/>
          <line class="cls-15" x1="355.28" y1="568.33" x2="356.45" y2="568.33"/>
          <rect class="cls-15" x="350.59" y="582.7" width="2.23" height="2.37"/>
          <polyline class="cls-15" points="350.05 573.65 347.44 573.65 347.44 581.73 350.05 581.73"/>
          <polyline class="cls-15" points="347.44 583.38 343.77 583.38 343.77 509.9 345.21 503.1 342.31 509.9"/>
          <polyline class="cls-15" points="343.77 583.38 343.77 589.1 341.98 589.1 341.98 606.3 357.24 606.3"/>
          <polygon class="cls-15" points="350.05 607.07 357.24 607.07 352.82 607.57 351.7 608.19 350.05 609.99 350.05 607.07"/>
          <polyline class="cls-15" points="347.44 606.3 347.44 609.25 347.92 612.17"/>
          <polyline class="cls-15" points="333.93 592.4 333.93 607.75 341.39 612.17 341.98 609.24 341.98 606.3"/>
          <polyline class="cls-15" points="341.39 612.17 357.24 612.17 357.24 613.47 341.44 613.47 333.93 608.94 333.93 607.75"/>
          <line class="cls-15" x1="343.77" y1="581.73" x2="336.83" y2="581.73"/>
          <line class="cls-15" x1="338.45" y1="581.73" x2="338.45" y2="610.43"/>
          <rect class="cls-15" x="338.45" y="581.73" width="1.23" height="1.23"/>
          <rect class="cls-15" x="338.45" y="582.96" width="1.23" height="1.23"/>
          <rect class="cls-15" x="338.45" y="584.19" width="1.23" height="1.23"/>
          <rect class="cls-15" x="338.45" y="585.41" width="1.23" height="1.23"/>
          <rect class="cls-15" x="338.45" y="586.64" width="1.23" height="1.23"/>
          <rect class="cls-15" x="338.45" y="587.87" width="1.23" height="1.23"/>
          <polyline class="cls-15" points="338.75 498.04 338.75 574.4 338.45 581.73"/>
          <polyline class="cls-15" points="336.83 561.1 336.83 592.4 327.56 592.4 327.56 597.65"/>
          <polygon class="cls-15" points="372.79 485.28 369.72 485.28 369.26 496.15 372.79 485.28"/>
          <polyline class="cls-15" points="367.04 503.1 367.04 515.92 363.1 515.92 363.24 519.13 358.86 529.08 356.72 529.08"/>
          <line class="cls-70" x1="364.43" y1="522.24" x2="364.43" y2="557.12"/>
          <polyline class="cls-15" points="368.53 483.85 365.92 483.85 365.92 494.2 369.26 503.1 357.21 503.1"/>
          <line class="cls-70" x1="350.2" y1="522.24" x2="350.2" y2="557.12"/>
          <polyline class="cls-15" points="357.24 495.82 364.43 495.82 365.58 498.61 357.16 498.61"/>
          <polyline class="cls-15" points="374.8 527.34 364.43 527.48 364.43 606.3"/>
          <polyline class="cls-15" points="362.67 508.22 366 508.22 366 514.68 362.67 514.68"/>
          <polyline class="cls-15" points="370.2 500.26 374.8 509.9 374.8 581.73"/>
          <polyline class="cls-15" points="367.04 515.92 367.04 525.69 365.71 525.69 365.71 521.11 367.04 521.11"/>
          <line class="cls-15" x1="367.04" y1="519.84" x2="367.04" y2="606.3"/>
          <polyline class="cls-15" points="372.17 509.9 372.17 518.42 372.17 527.37"/>
          <polyline class="cls-15" points="357.24 532.51 359.48 532.51 364.43 527.48 363.24 519.13"/>
          <polyline class="cls-15" points="364.43 535.8 357.24 535.8 357.24 541.12 362.21 549.38 362.21 552.6 358.86 556.45 357.24 556.45"/>
          <polyline class="cls-15" points="362.21 552.61 364.43 552.61 364.43 549.38 362.21 549.38 362.21 535.8"/>
          <polyline class="cls-15" points="357.24 558.8 360.83 558.8 360.83 566.31 362.77 566.31 362.77 575.22 360.83 575.22 360.83 581.73 357.24 581.73"/>
          <polyline class="cls-15" points="360.21 554.89 363.32 556.85 360.83 558.8 358.86 558.8 358.86 556.45"/>
          <path class="cls-15" d="M364.43,585.66H360a2.92,2.92,0,0,0-2.77-2.28"/>
          <circle class="cls-15" cx="357.24" cy="551.26" r="2.08"/>
          <line class="cls-15" x1="362.21" y1="536.91" x2="364.43" y2="536.91"/>
          <line class="cls-15" x1="362.21" y1="538.05" x2="364.43" y2="538.05"/>
          <line class="cls-15" x1="362.21" y1="539.19" x2="364.43" y2="539.19"/>
          <line class="cls-15" x1="362.21" y1="540.33" x2="364.43" y2="540.33"/>
          <line class="cls-15" x1="362.21" y1="541.47" x2="364.43" y2="541.47"/>
          <line class="cls-15" x1="362.21" y1="542.61" x2="364.43" y2="542.61"/>
          <line class="cls-15" x1="362.21" y1="543.63" x2="364.43" y2="543.63"/>
          <line class="cls-15" x1="362.21" y1="544.77" x2="364.43" y2="544.77"/>
          <rect class="cls-15" x="362.77" y="545.46" width="1.09" height="3.38" transform="translate(726.64 1094.3) rotate(-180)"/>
          <rect class="cls-15" x="357.8" y="533.1" width="1.44" height="2.19" transform="translate(717.03 1068.39) rotate(-180)"/>
          <line class="cls-15" x1="358.86" y1="529.08" x2="359.48" y2="532.51"/>
          <circle class="cls-15" cx="361.09" cy="568.33" r="0.7"/>
          <line class="cls-15" x1="363.32" y1="556.85" x2="364.43" y2="552.61"/>
          <rect class="cls-15" x="361.63" y="558.8" width="1.14" height="6.74" transform="translate(724.41 1124.35) rotate(-180)"/>
          <rect class="cls-15" x="361.63" y="576.01" width="1.14" height="5.72" transform="translate(724.41 1157.74) rotate(-180)"/>
          <rect class="cls-15" x="360.52" y="569.66" width="1.14" height="1.14" transform="translate(722.18 1140.46) rotate(-180)"/>
          <rect class="cls-15" x="360.52" y="571.52" width="1.14" height="1.14" transform="translate(722.18 1144.18) rotate(-180)"/>
          <rect class="cls-15" x="363.22" y="558.8" width="0.67" height="6.74" transform="translate(727.11 1124.35) rotate(-180)"/>
          <rect class="cls-15" x="363.22" y="576.01" width="0.67" height="5.72" transform="translate(727.11 1157.74) rotate(-180)"/>
          <line class="cls-15" x1="360.84" y1="569.66" x2="362.77" y2="569.66"/>
          <line class="cls-15" x1="360.84" y1="571.52" x2="362.77" y2="571.52"/>
          <polyline class="cls-15" points="362.2 566.31 357.24 566.31 359.2 568.33 359.2 579.95 358.03 581.73 358.03 580.53 358.03 568.33 357.24 566.31"/>
          <line class="cls-15" x1="359.2" y1="568.33" x2="358.03" y2="568.33"/>
          <rect class="cls-15" x="361.66" y="582.7" width="2.23" height="2.37"/>
          <polyline class="cls-15" points="364.43 573.65 367.04 573.65 367.04 581.73 364.43 581.73"/>
          <polyline class="cls-15" points="367.04 583.38 370.7 583.38 370.7 509.9 369.26 503.1 372.17 509.9"/>
          <polyline class="cls-15" points="370.7 583.38 370.7 589.1 372.5 589.1 372.5 606.3 357.24 606.3"/>
          <polygon class="cls-15" points="364.43 607.07 357.24 607.07 361.66 607.57 362.77 608.19 364.43 609.99 364.43 607.07"/>
          <polyline class="cls-15" points="367.04 606.3 367.04 609.25 366.56 612.17"/>
          <polyline class="cls-15" points="380.4 609.03 373.04 613.47 357.24 613.47 357.24 612.17 373.09 612.17 380.4 607.75"/>
          <line class="cls-15" x1="370.7" y1="581.73" x2="377.65" y2="581.73"/>
          <line class="cls-15" x1="376.02" y1="581.73" x2="376.02" y2="610.43"/>
          <rect class="cls-15" x="374.8" y="581.73" width="1.23" height="1.23" transform="translate(750.82 1164.69) rotate(-180)"/>
          <rect class="cls-15" x="374.8" y="582.96" width="1.23" height="1.23" transform="translate(750.82 1167.15) rotate(-180)"/>
          <rect class="cls-15" x="374.8" y="584.19" width="1.23" height="1.23" transform="translate(750.82 1169.6) rotate(-180)"/>
          <rect class="cls-15" x="374.8" y="585.41" width="1.23" height="1.23" transform="translate(750.82 1172.06) rotate(-180)"/>
          <rect class="cls-15" x="374.8" y="586.64" width="1.23" height="1.23" transform="translate(750.82 1174.51) rotate(-180)"/>
          <rect class="cls-15" x="374.8" y="587.87" width="1.23" height="1.23" transform="translate(750.82 1176.96) rotate(-180)"/>
          <polyline class="cls-15" points="375.73 498.04 375.73 574.4 376.02 581.73"/>
          <polyline class="cls-15" points="377.65 561.1 377.65 592.4 386.92 592.4"/>
          <line class="cls-15" x1="369.26" y1="503.1" x2="374.8" y2="487.17"/>
          <line class="cls-15" x1="355.28" y1="579.94" x2="356.45" y2="579.94"/>
          <line class="cls-15" x1="359.2" y1="579.94" x2="358.03" y2="579.94"/>
          <path class="cls-15" d="M302.26,527.37a81.55,81.55,0,0,0,31.69,0"/>
          <line class="cls-15" x1="312.6" y1="528.73" x2="312.6" y2="578.56"/>
          <line class="cls-15" x1="316.74" y1="528.91" x2="316.74" y2="578.82"/>
          <polyline class="cls-15" points="333.93 517.03 304.93 517.03 304.93 519.13 302.26 519.13 302.26 523.3 333.94 523.3"/>
          <path class="cls-15" d="M302.26,523.3V576s13.9,6.35,31.67,0c.11,0,0-59,0-59l.22-3.48V499.12l4-52.72,6.64-100.53"/>
          <path class="cls-15" d="M316.74,568.82a84.63,84.63,0,0,0,17.21-2"/>
          <path class="cls-15" d="M302.26,566.82s3.44,1.48,10.34,1.9"/>
          <path class="cls-15" d="M302.26,536.91s10.64,4.4,31.69,0"/>
          <line class="cls-15" x1="306.91" y1="565.55" x2="312.6" y2="565.55"/>
          <polyline class="cls-15" points="316.74 565.55 328.97 565.55 328.97 554.73 333.94 554.73"/>
          <line class="cls-15" x1="306.64" y1="538.05" x2="306.64" y2="546.12"/>
          <polyline class="cls-15" points="309.01 577.99 309.01 582.96 326.77 583.01 326.77 577.99"/>
          <polyline class="cls-15" points="327.56 636.98 327.56 634.65 326.77 633.1 326.77 583.01"/>
          <polyline class="cls-15" points="309.01 582.96 307.59 584.19 308.3 632.01 306.91 634.49 306.91 636.98"/>
          <path class="cls-15" d="M307.87,603.18s8.1,3.07,18.9,0"/>
          <path class="cls-15" d="M308,614.62s6.82,2.81,18.73,0"/>
          <path class="cls-15" d="M306.91,637v12.54a23.39,23.39,0,0,0,20.65,0c.15,0,0-12.54,0-12.54"/>
          <polyline class="cls-15" points="315.65 615.87 315.65 621.84 313.7 621.84 313.7 627.5 315.65 627.5 315.65 621.84"/>
          <line class="cls-15" x1="313.74" y1="582.96" x2="313.71" y2="604.38"/>
          <line class="cls-15" x1="320.58" y1="582.96" x2="320.61" y2="604.36"/>
          <line class="cls-15" x1="320.61" y1="590.15" x2="313.71" y2="590.15"/>
          <line class="cls-15" x1="320.61" y1="592.4" x2="313.71" y2="592.4"/>
          <line class="cls-15" x1="320.61" y1="594.84" x2="313.71" y2="594.84"/>
          <line class="cls-15" x1="320.61" y1="597.65" x2="313.71" y2="597.65"/>
          <polyline class="cls-15" points="302.26 532.51 209.78 532.51 209.78 579.95 304.17 597.65 304.17 593.69 307.73 593.69"/>
          <line class="cls-15" x1="284.89" y1="532.51" x2="284.89" y2="594.03"/>
          <polyline class="cls-15" points="245.26 532.51 245.26 565.08 264.02 569.03 264.02 572.09 225.87 563.27 225.87 532.51"/>
          <polyline class="cls-15" points="284.89 556.45 280.04 556.45 280.04 573.65 284.89 573.65 302.26 573.65"/>
          <polyline class="cls-15" points="302.26 542.09 297.95 542.09 290.15 557.12 284.89 557.12"/>
          <line class="cls-15" x1="284.89" y1="572.09" x2="302.26" y2="572.09"/>
          <polyline class="cls-15" points="302.26 547.32 304.93 547.32 304.93 563.92 302.26 563.92"/>
          <polygon class="cls-15" points="307.73 571.52 310.88 571.52 310.88 576.01 307.87 576.01 307.73 571.52"/>
          <polyline class="cls-15" points="284.89 593.08 302.26 593.08 302.26 576.01"/>
          <line class="cls-15" x1="287.54" y1="573.65" x2="287.54" y2="593.08"/>
          <line class="cls-15" x1="284.89" y1="573.65" x2="284.89" y2="593.08"/>
          <line class="cls-15" x1="293.8" y1="573.65" x2="293.8" y2="593.08"/>
          <line class="cls-15" x1="291.15" y1="573.65" x2="291.15" y2="593.08"/>
          <line class="cls-15" x1="299.84" y1="573.65" x2="299.84" y2="593.08"/>
          <line class="cls-15" x1="297.19" y1="573.65" x2="297.19" y2="593.08"/>
          <polyline class="cls-15" points="209.78 538.05 223.6 544.2 223.6 566.82 209.78 572.66"/>
          <polyline class="cls-15" points="209.78 544.2 216.69 547.15 216.69 565.05 209.78 567.63"/>
          <line class="cls-15" x1="228.7" y1="563.93" x2="228.7" y2="581.13"/>
          <rect class="cls-15" x="217.29" y="576.01" width="3.26" height="2.54"/>
          <line class="cls-15" x1="209.78" y1="577.71" x2="284.89" y2="591.3"/>
          <path class="cls-15" d="M308.27,629.93s11.07,2.87,18.5,0"/>
          <polyline class="cls-15" points="322.79 615.39 322.79 626.84 321.01 626.84 321.01 622.16 317.4 618.51 317.27 615.87"/>
          <polyline class="cls-15" points="284.89 543.63 274.6 543.63 274.6 548.84 266.8 555.62 266.8 578.82 284.89 582.96 284.89 578.82 275.84 576.75 275.84 553.75 284.89 549.93"/>
          <path class="cls-15" d="M209.78,579.94s-7.05,2.62-12.86,0V524.69h12.86v7.82"/>
          <line class="cls-15" x1="196.92" y1="528.91" x2="209.78" y2="528.91"/>
          <line class="cls-15" x1="196.92" y1="533.83" x2="209.78" y2="533.83"/>
          <polyline class="cls-15" points="196.92 536.33 194.81 538.73 194.81 577.71 196.92 577.71"/>
          <polyline class="cls-15" points="209.78 540.87 205.93 545.15 205.93 576.26"/>
          <rect class="cls-15" x="199.57" y="559.48" width="5.09" height="3.81"/>
          <rect class="cls-15" x="199.57" y="564.57" width="5.09" height="3.81"/>
          <rect class="cls-15" x="199.57" y="569.66" width="5.09" height="3.81"/>
          <path class="cls-15" d="M196.92,575.21s5.13,2.92,12.86,0"/>
          <path class="cls-15" d="M198.86,580.62l-1.6,2.34v2.73a14.15,14.15,0,0,0,10.6,0c.09-.12,0-3.15,0-3.15l-1.4-1.77"/>
          <polyline class="cls-15" points="198.8 533.83 198.8 547.23 200.47 547.23 200.47 533.83"/>
          <path class="cls-15" d="M196.92,524.69v-5h-1.54v-6a35.28,35.28,0,0,1,14.4,0c0-.09,0,6,0,6l-12.86,0"/>
          <line class="cls-15" x1="208.74" y1="519.66" x2="208.74" y2="524.69"/>
          <line class="cls-15" x1="208.14" y1="519.66" x2="208.14" y2="524.69"/>
          <line class="cls-15" x1="206.71" y1="519.66" x2="206.71" y2="524.69"/>
          <line class="cls-15" x1="203.98" y1="519.66" x2="203.98" y2="524.69"/>
          <line class="cls-15" x1="201.36" y1="519.66" x2="201.36" y2="524.69"/>
          <line class="cls-15" x1="199.22" y1="519.66" x2="199.22" y2="524.69"/>
          <line class="cls-15" x1="197.54" y1="519.66" x2="197.54" y2="524.69"/>
          <polyline class="cls-15" points="199.63 512.95 199.63 455.82 205.38 455.82 205.38 512.95"/>
          <polyline class="cls-15" points="201.07 455.82 201.07 414.15 204.63 414.15 204.63 455.82"/>
          <polyline class="cls-15" points="201.07 414.15 198.12 411.54 198.12 409.88 207.03 409.88 207.03 412.01 204.63 414.15"/>
          <line class="cls-15" x1="198.12" y1="411.54" x2="204.63" y2="411.54"/>
          <line class="cls-15" x1="199.63" y1="458.8" x2="205.38" y2="458.8"/>
          <polyline class="cls-15" points="200.25 409.88 200.25 407.34 198.98 405.22 198.98 399.29 202.57 399.29 202.57 383.29 204.63 383.29 204.63 402.78 206.08 402.78 206.08 405.86 204.63 409.88"/>
          <polyline class="cls-15" points="236.55 526.53 236.55 523.89 223.69 523.89 222.63 523.89 222.63 526"/>
          <path class="cls-15" d="M224.17,523.89v-5h-1.53v-6a31.13,31.13,0,0,1,14.39,0c0-.1,0,6,0,6l-12.86,0"/>
          <line class="cls-15" x1="235.99" y1="518.87" x2="235.99" y2="523.89"/>
          <line class="cls-15" x1="235.4" y1="518.87" x2="235.4" y2="523.89"/>
          <line class="cls-15" x1="233.97" y1="518.87" x2="233.97" y2="523.89"/>
          <line class="cls-15" x1="231.23" y1="518.87" x2="231.23" y2="523.89"/>
          <line class="cls-15" x1="228.61" y1="518.87" x2="228.61" y2="523.89"/>
          <line class="cls-15" x1="226.47" y1="518.87" x2="226.47" y2="523.89"/>
          <line class="cls-15" x1="224.8" y1="518.87" x2="224.8" y2="523.89"/>
          <polyline class="cls-15" points="226.88 512.36 226.88 462.25 232.63 462.25 232.63 512.18"/>
          <polyline class="cls-15" points="228.32 462.25 228.32 420.57 231.89 420.57 231.89 462.25"/>
          <polyline class="cls-15" points="228.32 420.57 225.37 417.97 225.37 416.3 234.28 416.3 234.28 418.44 231.89 420.57"/>
          <line class="cls-15" x1="225.37" y1="417.97" x2="231.89" y2="417.97"/>
          <line class="cls-15" x1="226.89" y1="465.22" x2="232.63" y2="465.22"/>
          <polyline class="cls-15" points="227.51 416.3 227.51 413.76 226.24 411.65 226.24 405.71 229.82 405.71 229.82 389.71 231.89 389.71 231.89 409.21 233.34 409.21 233.34 412.28 231.89 416.3"/>
          <polyline class="cls-15" points="302.26 529.08 218.95 525.85 218.95 532.51"/>
          <path class="cls-15" d="M333.93,592.4v23.47l1.35,5.25v9.45a21.67,21.67,0,0,1-8.51,1.57"/>
          <line class="cls-15" x1="330.06" y1="592.4" x2="333.93" y2="595.19"/>
          <rect class="cls-15" x="332.19" y="580.68" width="1.74" height="8.91"/>
          <path class="cls-15" d="M333.93,615.87S331.8,617,326.77,617"/>
          <polyline class="cls-15" points="330.06 595.2 330.06 603.18 332.19 603.18"/>
          <line class="cls-15" x1="329.32" y1="616.85" x2="329.32" y2="607.75"/>
          <path class="cls-15" d="M306.8,644.69a23.35,23.35,0,0,0,20.65,0"/>
          <line class="cls-15" x1="326.03" y1="645.32" x2="326.03" y2="650.19"/>
          <line class="cls-15" x1="322.92" y1="646.36" x2="322.92" y2="651.23"/>
          <line class="cls-15" x1="316.82" y1="647.09" x2="316.82" y2="651.96"/>
          <line class="cls-15" x1="311.69" y1="646.53" x2="311.69" y2="651.23"/>
          <line class="cls-15" x1="308.27" y1="645.38" x2="308.27" y2="650.19"/>
          <path class="cls-15" d="M412.07,527.33a81.57,81.57,0,0,1-31.69,0"/>
          <line class="cls-15" x1="401.72" y1="528.69" x2="401.72" y2="578.52"/>
          <line class="cls-15" x1="397.59" y1="528.87" x2="397.59" y2="578.78"/>
          <polyline class="cls-15" points="380.4 516.99 409.39 516.99 409.39 519.09 412.07 519.09 412.07 523.26 380.39 523.26"/>
          <path class="cls-15" d="M412.07,523.26V576s-13.9,6.35-31.67,0c-.11-.05,0-59,0-59l-.23-3.48V499.08l-4-52.72-6.64-100.53"/>
          <path class="cls-15" d="M397.59,568.78a84.63,84.63,0,0,1-17.21-2"/>
          <path class="cls-15" d="M412.07,566.78s-3.44,1.47-10.35,1.9"/>
          <path class="cls-15" d="M412.07,536.87s-10.64,4.4-31.69,0"/>
          <line class="cls-15" x1="407.42" y1="565.51" x2="401.72" y2="565.51"/>
          <polyline class="cls-15" points="397.59 565.51 385.36 565.51 385.36 554.69 380.39 554.69"/>
          <line class="cls-15" x1="407.69" y1="538.01" x2="407.69" y2="546.08"/>
          <line class="cls-15" x1="391.92" y1="538.57" x2="391.92" y2="549.89"/>
          <polyline class="cls-15" points="391.92 540.95 387.56 540.95 387.56 553.6"/>
          <polyline class="cls-15" points="405.32 577.95 405.32 582.92 387.56 583.34 387.56 577.95"/>
          <polyline class="cls-15" points="386.77 636.94 386.77 634.61 387.56 633.05 387.56 583.34"/>
          <polyline class="cls-15" points="405.32 582.92 406.74 584.15 406.03 631.97 407.42 634.45 407.42 636.94"/>
          <path class="cls-15" d="M406.46,603.14s-8.1,3.07-18.9,0"/>
          <path class="cls-15" d="M406.29,614.58s-6.82,2.81-18.73,0"/>
          <path class="cls-15" d="M407.42,636.94v12.54a23.4,23.4,0,0,1-20.65,0c-.15,0,0-12.54,0-12.54"/>
          <polyline class="cls-15" points="398.68 615.83 398.68 621.8 400.62 621.8 400.62 627.46 398.68 627.46 398.68 621.8"/>
          <line class="cls-15" x1="400.62" y1="585.99" x2="400.62" y2="604.34"/>
          <line class="cls-15" x1="393.72" y1="585.99" x2="393.72" y2="604.32"/>
          <line class="cls-15" x1="393.72" y1="590.11" x2="400.62" y2="590.11"/>
          <line class="cls-15" x1="393.72" y1="592.36" x2="400.62" y2="592.36"/>
          <line class="cls-15" x1="393.72" y1="594.8" x2="400.62" y2="594.8"/>
          <line class="cls-15" x1="393.72" y1="597.61" x2="400.62" y2="597.61"/>
          <polyline class="cls-15" points="412.07 532.47 504.55 532.47 504.55 579.9 410.16 597.61 410.16 593.65 406.6 593.65"/>
          <line class="cls-15" x1="429.44" y1="532.47" x2="429.44" y2="593.99"/>
          <polyline class="cls-15" points="469.07 532.47 469.07 565.04 450.31 568.99 450.31 572.05 488.46 563.23 488.46 532.47"/>
          <line class="cls-15" x1="469.07" y1="539.64" x2="429.44" y2="539.64"/>
          <line class="cls-15" x1="454.52" y1="539.64" x2="454.52" y2="567.78"/>
          <polyline class="cls-15" points="429.44 556.4 434.29 556.4 434.29 573.62 429.44 573.62 412.07 573.62"/>
          <polyline class="cls-5" points="412.07 542.04 416.37 542.04 424.17 557.08 429.44 557.08"/>
          <line class="cls-15" x1="429.44" y1="572.05" x2="412.07" y2="572.05"/>
          <polyline class="cls-15" points="412.07 547.28 409.39 547.28 409.39 563.88 412.07 563.88"/>
          <polygon class="cls-15" points="406.6 571.48 403.45 571.48 403.45 575.97 406.46 575.97 406.6 571.48"/>
          <polyline class="cls-15" points="429.44 593.04 412.07 593.04 412.07 575.97"/>
          <line class="cls-15" x1="426.79" y1="573.61" x2="426.79" y2="593.04"/>
          <line class="cls-15" x1="429.44" y1="573.61" x2="429.44" y2="593.04"/>
          <line class="cls-15" x1="420.53" y1="573.61" x2="420.53" y2="593.04"/>
          <line class="cls-15" x1="423.18" y1="573.61" x2="423.18" y2="593.04"/>
          <line class="cls-15" x1="414.49" y1="573.61" x2="414.49" y2="593.04"/>
          <line class="cls-15" x1="417.14" y1="573.61" x2="417.14" y2="593.04"/>
          <polyline class="cls-15" points="504.55 538.01 490.73 544.16 490.73 566.78 504.55 572.62"/>
          <polyline class="cls-15" points="504.55 544.16 497.64 547.11 497.64 565.01 504.55 567.59"/>
          <line class="cls-15" x1="485.63" y1="563.88" x2="485.63" y2="581.09"/>
          <rect class="cls-15" x="493.78" y="575.97" width="3.26" height="2.54"/>
          <line class="cls-15" x1="504.55" y1="577.67" x2="429.44" y2="591.26"/>
          <path class="cls-15" d="M406.06,629.89s-11.07,2.87-18.5,0"/>
          <polyline class="cls-15" points="391.54 615.35 391.54 626.8 393.31 626.8 393.31 622.12 396.93 618.47 397.06 615.83"/>
          <polyline class="cls-15" points="429.44 543.59 439.73 543.59 439.73 548.8 447.52 555.58 447.52 578.78 429.44 582.92 429.44 578.78 438.48 576.71 438.48 553.71 429.44 549.89"/>
          <path class="cls-15" d="M504.55,579.9s7.05,2.61,12.86,0V524.65H504.55v7.82"/>
          <line class="cls-15" x1="517.41" y1="528.87" x2="504.55" y2="528.87"/>
          <line class="cls-15" x1="517.41" y1="533.79" x2="504.55" y2="533.79"/>
          <polyline class="cls-15" points="517.41 536.29 519.52 538.69 519.52 577.67 517.41 577.67"/>
          <polyline class="cls-15" points="504.55 540.83 508.4 545.11 508.4 576.22"/>
          <rect class="cls-15" x="509.67" y="559.44" width="5.09" height="3.81" transform="translate(1024.42 1122.7) rotate(-180)"/>
          <rect class="cls-15" x="509.67" y="564.53" width="5.09" height="3.81" transform="translate(1024.42 1132.88) rotate(-180)"/>
          <rect class="cls-15" x="509.67" y="569.62" width="5.09" height="3.81" transform="translate(1024.42 1143.06) rotate(-180)"/>
          <path class="cls-15" d="M517.41,575.17s-5.13,2.92-12.86,0"/>
          <path class="cls-15" d="M515.46,580.58l1.61,2.34v2.73a14.15,14.15,0,0,1-10.6,0c-.09-.12,0-3.15,0-3.15l1.4-1.77"/>
          <polyline class="cls-15" points="515.53 533.79 515.53 547.19 513.86 547.19 513.86 533.79"/>
          <path class="cls-15" d="M517.41,524.65v-5H519v-6a35.28,35.28,0,0,0-14.4,0c0-.09,0,6,0,6l12.86,0"/>
          <line class="cls-15" x1="505.59" y1="519.62" x2="505.59" y2="524.65"/>
          <line class="cls-15" x1="506.19" y1="519.62" x2="506.19" y2="524.65"/>
          <line class="cls-15" x1="507.61" y1="519.62" x2="507.61" y2="524.65"/>
          <line class="cls-15" x1="510.35" y1="519.62" x2="510.35" y2="524.65"/>
          <line class="cls-15" x1="512.97" y1="519.62" x2="512.97" y2="524.65"/>
          <line class="cls-15" x1="515.11" y1="519.62" x2="515.11" y2="524.65"/>
          <line class="cls-15" x1="516.78" y1="519.62" x2="516.78" y2="524.65"/>
          <polyline class="cls-15" points="514.7 512.91 514.7 455.79 508.95 455.79 508.95 512.91"/>
          <polyline class="cls-15" points="513.26 455.79 513.26 414.11 509.69 414.11 509.69 455.79"/>
          <polyline class="cls-15" points="513.26 414.11 516.21 411.5 516.21 409.83 507.3 409.83 507.3 411.97 509.69 414.11"/>
          <line class="cls-15" x1="516.21" y1="411.5" x2="509.69" y2="411.5"/>
          <line class="cls-15" x1="514.7" y1="458.76" x2="508.95" y2="458.76"/>
          <polyline class="cls-15" points="514.07 409.83 514.07 407.3 515.34 405.18 515.34 399.25 511.76 399.25 511.76 383.25 509.69 383.25 509.69 402.74 508.25 402.74 508.25 405.82 509.69 409.83"/>
          <polyline class="cls-15" points="477.78 526.5 477.78 523.85 490.64 523.85 491.69 523.85 491.69 525.96"/>
          <path class="cls-15" d="M490.16,523.85v-5h1.53v-6a31.17,31.17,0,0,0-14.4,0v6l12.87,0"/>
          <line class="cls-15" x1="478.34" y1="518.83" x2="478.34" y2="523.85"/>
          <line class="cls-15" x1="478.93" y1="518.83" x2="478.93" y2="523.85"/>
          <line class="cls-15" x1="480.36" y1="518.83" x2="480.36" y2="523.85"/>
          <line class="cls-15" x1="483.1" y1="518.83" x2="483.1" y2="523.85"/>
          <line class="cls-15" x1="485.72" y1="518.83" x2="485.72" y2="523.85"/>
          <line class="cls-15" x1="487.86" y1="518.83" x2="487.86" y2="523.85"/>
          <line class="cls-15" x1="489.53" y1="518.83" x2="489.53" y2="523.85"/>
          <polyline class="cls-15" points="487.44 512.32 487.44 462.21 481.69 462.21 481.69 512.14"/>
          <polyline class="cls-15" points="486.01 462.21 486.01 420.53 482.44 420.53 482.44 462.21"/>
          <polyline class="cls-15" points="486.01 420.53 488.96 417.93 488.96 416.26 480.05 416.26 480.05 418.4 482.44 420.53"/>
          <line class="cls-15" x1="488.96" y1="417.93" x2="482.44" y2="417.93"/>
          <line class="cls-15" x1="487.44" y1="465.18" x2="481.7" y2="465.18"/>
          <polyline class="cls-15" points="486.82 416.26 486.82 413.73 488.09 411.61 488.09 405.67 484.5 405.67 484.5 389.67 482.44 389.67 482.44 409.17 480.99 409.17 480.99 412.24 482.44 416.26"/>
          <polyline class="cls-15" points="412.07 529.04 495.38 525.81 495.38 532.47"/>
          <path class="cls-15" d="M380.4,592.36v23.47l-1.35,5.25v9.45a21.61,21.61,0,0,0,8.51,1.57"/>
          <line class="cls-15" x1="384.26" y1="592.36" x2="380.4" y2="595.15"/>
          <rect class="cls-15" x="380.4" y="580.64" width="1.74" height="8.91"/>
          <path class="cls-15" d="M380.4,615.83s2.12,1.08,7.16,1.08"/>
          <polyline class="cls-15" points="384.26 595.16 384.26 603.14 382.13 603.14"/>
          <line class="cls-15" x1="385.01" y1="616.81" x2="385.01" y2="607.71"/>
          <path class="cls-15" d="M407.53,644.65a23.36,23.36,0,0,1-20.65,0"/>
          <line class="cls-15" x1="388.29" y1="645.28" x2="388.29" y2="650.15"/>
          <line class="cls-15" x1="391.41" y1="646.32" x2="391.41" y2="651.19"/>
          <line class="cls-15" x1="397.51" y1="647.05" x2="397.51" y2="651.92"/>
          <line class="cls-15" x1="402.64" y1="646.32" x2="402.64" y2="651.19"/>
          <line class="cls-15" x1="406.06" y1="645.58" x2="406.06" y2="650.45"/>
          <rect class="cls-71" x="199.57" y="569.66" width="5.09" height="3.81"/>
        </g>
        <rect class="cls-70" x="246.9" y="478.4" width="221.9" height="295.53"/>
        <polyline class="cls-72" points="227.93 452.64 244.6 452.7 244.6 485.43"/>
        <circle class="cls-73" cx="355.16" cy="414.63" r="344.66"/>
        <circle class="cls-74" cx="621.06" cy="526.34" r="3.34"/>
        <circle class="cls-2" cx="591.25" cy="514.39" r="3.34"/>
        <circle class="cls-74" cx="458.78" cy="639.24" r="1.67"/>
        <circle class="cls-74" cx="598.73" cy="568.58" r="1.67"/>
        <circle class="cls-3" cx="506.99" cy="659.49" r="1.67"/>
        <circle class="cls-74" cx="174.82" cy="606.36" r="3.34"/>
        <circle class="cls-74" cx="354.39" cy="224.34" r="3.34"/>
        <circle class="cls-2" cx="426.79" cy="449.32" r="3.34"/>
        <circle class="cls-74" cx="121.18" cy="536.35" r="3.34"/>
        <circle class="cls-74" cx="433.49" cy="346.68" r="3.34"/>
        <circle class="cls-74" cx="510.34" cy="604.18" r="4.5"/>
        <circle class="cls-3" cx="624.4" cy="355.71" r="4.5"/>
        <circle class="cls-3" cx="84.48" cy="479.01" r="4.5"/>
        <circle class="cls-2" cx="194.76" cy="643.74" r="4.5"/>
        <circle class="cls-2" cx="548.39" cy="369.61" r="4.5"/>
        <circle class="cls-74" cx="88.98" cy="346.68" r="4.5"/>
        <circle class="cls-3" cx="282.43" cy="285.73" r="4.5"/>
        <circle class="cls-74" cx="282.44" cy="328.86" r="4.5"/>
        <circle class="cls-74" cx="282.44" cy="437.76" r="3.34"/>
        <circle class="cls-74" cx="456.44" cy="306.04" r="1.67"/>
        <circle class="cls-74" cx="482.88" cy="179.42" r="1.67"/>
        <circle class="cls-74" cx="169.77" cy="235.94" r="1.97"/>
        <circle class="cls-74" cx="597.06" cy="431.25" r="1.67"/>
        <circle class="cls-74" cx="103.67" cy="405.17" r="1.67"/>
        <circle class="cls-74" cx="79.98" cy="367.15" r="2.47"/>
        <circle class="cls-74" cx="624.4" cy="290.32" r="2.47"/>
        <circle class="cls-74" cx="415.82" cy="463.8" r="2.47"/>
        <circle class="cls-3" cx="190.26" cy="324.35" r="2.47"/>
        <text class="cls-75" transform="matrix(0.56, -0.83, 0.83, 0.56, 148.64, 325.53)">S</text>
        <text class="cls-75" transform="translate(178.68 280.55) rotate(-42.98)">T</text>
        <text class="cls-75" transform="translate(210.04 248.82) rotate(-30.5)">A</text>
        <text class="cls-75" transform="translate(264.55 216.54) rotate(-15.29)">R</text>
        <text class="cls-75" transform="translate(322.28 202.23) rotate(-5.07)"> </text>
        <text class="cls-75" transform="translate(344.2 195.26) rotate(9.37)">W</text>
        <text class="cls-75" transform="translate(430.83 210.38) rotate(27.35)">A</text>
        <text class="cls-75" transform="translate(487.12 239.35) rotate(42.47)">R</text>
        <text class="cls-75" transform="matrix(0.55, 0.83, -0.83, 0.55, 530.35, 278.56)">S</text>
      </g>
    </g>
  </g>
</svg>
